<svg width="178" height="61" viewBox="0 0 178 61" fill="none" xmlns="http://www.w3.org/2000/svg">
<path d="M17.064 42H13.2L7.92 34.8L5.28 37.704V42H2.064V25.2H5.28V33.576L12.864 25.2H16.656L10.2 32.304L17.064 42ZM19.3581 29.16H22.4781V42H19.3581V29.16ZM20.8941 23.64C21.4061 23.64 21.8301 23.816 22.1661 24.168C22.5021 24.52 22.6701 24.968 22.6701 25.512C22.6701 26.04 22.5021 26.48 22.1661 26.832C21.8301 27.184 21.4061 27.36 20.8941 27.36C20.3821 27.36 19.9581 27.184 19.6221 26.832C19.2861 26.48 19.1181 26.04 19.1181 25.512C19.1181 24.968 19.2861 24.52 19.6221 24.168C19.9581 23.816 20.3821 23.64 20.8941 23.64ZM34.0704 29.04C35.5424 29.04 36.7024 29.488 37.5504 30.384C38.3984 31.264 38.8224 32.464 38.8224 33.984V42H35.6784V34.896C35.6784 34 35.4224 33.296 34.9104 32.784C34.3984 32.256 33.7024 31.992 32.8224 31.992C31.7824 32.008 30.9584 32.36 30.3504 33.048C29.7584 33.736 29.4624 34.616 29.4624 35.688V42H26.3424V29.16H29.4624V31.56C30.3424 29.912 31.8784 29.072 34.0704 29.04ZM54.7108 24.192V42H51.5908V39.936C51.1268 40.656 50.5268 41.208 49.7908 41.592C49.0708 41.96 48.2308 42.144 47.2708 42.144C46.0548 42.144 44.9828 41.872 44.0548 41.328C43.1428 40.768 42.4308 39.992 41.9188 39C41.4068 37.992 41.1508 36.84 41.1508 35.544C41.1508 34.264 41.3988 33.136 41.8948 32.16C42.4068 31.168 43.1188 30.4 44.0308 29.856C44.9588 29.312 46.0148 29.04 47.1988 29.04C48.1748 29.04 49.0308 29.232 49.7668 29.616C50.5028 30 51.1108 30.552 51.5908 31.272V24.192H54.7108ZM47.9428 39.528C49.0148 39.528 49.8868 39.168 50.5588 38.448C51.2468 37.712 51.5908 36.768 51.5908 35.616C51.5908 34.464 51.2468 33.528 50.5588 32.808C49.8868 32.072 49.0148 31.704 47.9428 31.704C46.8708 31.704 45.9988 32.072 45.3268 32.808C44.6548 33.528 44.3108 34.464 44.2948 35.616C44.3108 36.768 44.6548 37.712 45.3268 38.448C45.9988 39.168 46.8708 39.528 47.9428 39.528ZM66.2936 42V40.44C65.8456 41 65.2696 41.424 64.5656 41.712C63.8616 42 63.0536 42.144 62.1416 42.144C61.2456 42.144 60.4536 41.976 59.7656 41.64C59.0936 41.288 58.5736 40.808 58.2056 40.2C57.8376 39.592 57.6536 38.912 57.6536 38.16C57.6536 36.96 58.0776 36.024 58.9256 35.352C59.7736 34.664 60.9736 34.312 62.5256 34.296H66.2696V33.96C66.2696 33.208 66.0216 32.624 65.5256 32.208C65.0296 31.792 64.3096 31.584 63.3656 31.584C62.1496 31.584 60.8776 31.984 59.5496 32.784L58.4216 30.624C59.4296 30.064 60.3416 29.664 61.1576 29.424C61.9896 29.168 62.9576 29.04 64.0616 29.04C65.7256 29.04 67.0136 29.44 67.9256 30.24C68.8536 31.04 69.3256 32.16 69.3416 33.6L69.3656 42H66.2936ZM62.8856 39.744C63.7816 39.744 64.5496 39.536 65.1896 39.12C65.8296 38.688 66.1896 38.16 66.2696 37.536V36.384H63.0296C62.1976 36.384 61.5816 36.512 61.1816 36.768C60.7976 37.008 60.6056 37.408 60.6056 37.968C60.6056 38.512 60.8056 38.944 61.2056 39.264C61.6216 39.584 62.1816 39.744 62.8856 39.744Z" fill="#00B494"/>
<path d="M97.0819 46.28C96.9219 46.28 96.6685 46.2533 96.3219 46.2C96.0019 46.1733 95.6552 46.0533 95.2819 45.84C94.9085 45.6267 94.5619 45.3067 94.2419 44.88C93.9219 44.4533 93.6952 43.8533 93.5619 43.08C93.4285 42.3067 93.4152 41.3333 93.5219 40.16C93.6552 38.9867 93.9885 37.5467 94.5219 35.84C94.8152 34.96 95.1485 33.9867 95.5219 32.92C95.8419 31.9867 96.2285 30.88 96.6819 29.6C97.1619 28.32 97.7085 26.88 98.3219 25.28C96.6952 27.2533 95.1752 29.32 93.7619 31.48C93.1485 32.4133 92.5352 33.4133 91.9219 34.48C91.3352 35.52 90.7619 36.6133 90.2019 37.76C89.6685 38.9067 89.1885 40.08 88.7619 41.28C88.3619 42.4533 88.0419 43.64 87.8019 44.84C87.9352 44.9733 87.9619 45.1333 87.8819 45.32C87.8285 45.4267 87.7752 45.52 87.7219 45.6C87.6685 45.6267 87.6019 45.6667 87.5219 45.72C87.3619 45.8267 87.2819 45.9333 87.2819 46.04C87.2552 46.1467 87.1619 46.1067 87.0019 45.92C86.9219 45.84 86.8419 45.7333 86.7619 45.6C86.2285 44.8533 85.8019 44.0133 85.4819 43.08C85.1885 42.1467 85.0285 41.0667 85.0019 39.84C84.9752 38.5867 85.0819 37.1467 85.3219 35.52C85.5885 33.8933 86.0285 32 86.6419 29.84C86.8819 28.9867 87.1219 28.1733 87.3619 27.4C87.6019 26.6267 87.8552 25.8933 88.1219 25.2C87.5619 26.2933 86.9619 27.4533 86.3219 28.68C85.6819 29.88 85.0285 31.0933 84.3619 32.32C83.6952 33.5467 83.0285 34.76 82.3619 35.96C81.6952 37.1333 81.0552 38.2533 80.4419 39.32C79.3219 41.1867 78.1485 42.6267 76.9219 43.64C75.6952 44.6533 74.5219 45.3867 73.4019 45.84C73.3752 45.84 73.3485 45.84 73.3219 45.84C73.3219 45.8667 73.3085 45.88 73.2819 45.88C72.9619 45.88 72.6685 45.7867 72.4019 45.6C72.2685 45.52 72.1752 45.44 72.1219 45.36C72.0952 45.3067 72.0685 45.24 72.0419 45.16C72.0419 45.1067 72.0152 45.04 71.9619 44.96C71.9085 44.9067 71.7885 44.84 71.6019 44.76C71.4685 44.68 71.3752 44.56 71.3219 44.4C71.9085 43.7333 72.5219 42.88 73.1619 41.84C73.3485 41.4667 73.5352 41.08 73.7219 40.68C73.9085 40.2533 74.0952 39.8267 74.2819 39.4C74.4952 38.92 74.7085 38.44 74.9219 37.96C75.1352 37.48 75.3085 37.0667 75.4419 36.72C76.0285 35.28 76.6152 33.72 77.2019 32.04C77.8152 30.3333 78.3619 28.6933 78.8419 27.12C79.3485 25.5467 79.7885 24.1333 80.1619 22.88C80.5619 21.6267 80.8552 20.72 81.0419 20.16C81.0952 20.0533 81.1619 19.96 81.2419 19.88C81.3219 19.7733 81.4285 19.7467 81.5619 19.8L81.6019 19.84C81.6819 19.92 81.7619 19.9733 81.8419 20C81.8952 19.9733 81.9485 19.9467 82.0019 19.92C82.0819 19.8933 82.1752 19.84 82.2819 19.76L82.5219 19.64C82.3885 20.04 82.2685 20.4533 82.1619 20.88C82.0552 21.28 81.9619 21.64 81.8819 21.96C81.8285 22.1467 81.7885 22.28 81.7619 22.36C81.7619 22.4133 81.7485 22.4533 81.7219 22.48C81.7219 22.5333 81.7085 22.6133 81.6819 22.72C81.6552 22.7733 81.6419 22.8 81.6419 22.8C81.6685 22.7733 81.6952 22.72 81.7219 22.64C81.7485 22.56 81.7885 22.44 81.8419 22.28C81.8685 22.2 81.8952 22.1067 81.9219 22C81.9485 21.8933 81.9752 21.7867 82.0019 21.68C82.0819 21.44 82.1219 21.28 82.1219 21.2C82.1485 21.12 82.1752 21.0533 82.2019 21C82.2019 20.9467 82.2019 20.8933 82.2019 20.84C82.2285 20.7867 82.2685 20.6533 82.3219 20.44C82.3752 20.2533 82.4152 20.0933 82.4419 19.96C82.4685 19.8267 82.4952 19.72 82.5219 19.64C82.6552 19.5867 82.7752 19.5733 82.8819 19.6C83.0152 19.6267 83.1085 19.7067 83.1619 19.84C83.2152 20.0267 83.3085 20.1333 83.4419 20.16C83.5752 20.1867 83.6285 20.3067 83.6019 20.52C83.6019 20.5733 83.5885 20.6133 83.5619 20.64C83.5619 20.64 83.5619 20.6667 83.5619 20.72C83.5085 20.88 83.4952 20.9733 83.5219 21C83.5485 21.0267 83.5885 21.04 83.6419 21.04C83.6952 21.04 83.7485 21.04 83.8019 21.04C83.8819 21.0133 83.9219 21.04 83.9219 21.12C84.0819 20.96 84.1752 20.9333 84.2019 21.04C84.2019 21.0933 84.1085 21.5867 83.9219 22.52C83.7352 23.4267 83.4285 24.6133 83.0019 26.08C82.6019 27.52 82.0685 29.1733 81.4019 31.04C80.7619 32.88 79.9885 34.7733 79.0819 36.72C79.0285 36.8533 78.8819 37.16 78.6419 37.64C78.4019 38.0933 78.1352 38.6133 77.8419 39.2C77.7885 39.3067 77.7352 39.4133 77.6819 39.52C77.6285 39.6 77.5752 39.6933 77.5219 39.8C78.8819 38.0667 80.2152 36.1467 81.5219 34.04C82.8552 31.9067 84.0952 29.8 85.2419 27.72C86.4152 25.6133 87.4685 23.64 88.4019 21.8C89.3352 19.9333 90.0952 18.4 90.6819 17.2C90.8685 16.9867 91.0952 16.7733 91.3619 16.56C91.6285 16.32 91.8152 16.32 91.9219 16.56L91.8819 17.4C91.9885 17.24 92.0685 17.12 92.1219 17.04C92.2019 16.96 92.2552 16.9067 92.2819 16.88C92.3885 16.8267 92.4419 16.9067 92.4419 17.12C92.4419 17.3333 92.5219 17.4667 92.6819 17.52C92.7885 17.5733 92.8819 17.4933 92.9619 17.28C93.0419 17.28 93.1619 17.2933 93.3219 17.32C93.4819 17.32 93.6419 17.3467 93.8019 17.4C93.9619 17.4533 94.1085 17.5467 94.2419 17.68C94.3752 17.7867 94.4685 17.9467 94.5219 18.16C94.5485 18.3733 94.5885 18.52 94.6419 18.6C94.6952 18.68 94.7352 18.76 94.7619 18.84C94.7885 18.8933 94.8019 18.9733 94.8019 19.08C94.8019 19.16 94.7752 19.2933 94.7219 19.48C94.4019 20.2267 94.0152 21.1467 93.5619 22.24C93.1085 23.3333 92.6285 24.52 92.1219 25.8C91.6152 27.08 91.0952 28.4133 90.5619 29.8C90.0552 31.1867 89.5752 32.56 89.1219 33.92C88.6685 35.28 88.2685 36.5867 87.9219 37.84C87.6019 39.0667 87.3752 40.1733 87.2419 41.16C87.5085 40.3867 87.8952 39.3867 88.4019 38.16C88.9085 36.9067 89.5619 35.52 90.3619 34C91.1619 32.4533 92.1219 30.8267 93.2419 29.12C94.3619 27.3867 95.6552 25.6533 97.1219 23.92C97.2019 23.84 97.3352 23.72 97.5219 23.56C97.7085 23.3733 97.9219 23.2133 98.1619 23.08C98.4285 22.92 98.7219 22.8133 99.0419 22.76C99.3619 22.68 99.6819 22.68 100.002 22.76C100.429 22.92 100.855 23.1467 101.282 23.44C101.442 23.4667 101.602 23.52 101.762 23.6C101.949 23.68 102.095 23.8267 102.202 24.04C102.335 24.2267 102.415 24.4933 102.442 24.84C102.469 25.16 102.415 25.5733 102.282 26.08C102.175 26.6133 101.882 27.4 101.402 28.44C100.922 29.4533 100.389 30.6 99.8019 31.88C99.2152 33.16 98.6419 34.5067 98.0819 35.92C97.5485 37.3067 97.1352 38.64 96.8419 39.92C96.5752 41.1733 96.4952 42.2933 96.6019 43.28C96.7352 44.2933 97.2019 45.04 98.0019 45.52L97.5219 46C97.4952 46 97.4819 45.9867 97.4819 45.96C97.4819 45.96 97.4685 45.96 97.4419 45.96C97.3885 45.9333 97.3485 45.9333 97.3219 45.96C97.2685 45.9333 97.2285 45.92 97.2019 45.92C97.2019 45.92 97.1752 45.9067 97.1219 45.88L97.0019 45.84C96.9485 45.84 97.0019 45.8667 97.1619 45.92C97.1619 45.92 97.1752 45.9333 97.2019 45.96H97.2819C97.3352 45.9867 97.3619 46 97.3619 46C97.3885 46 97.4285 46.0133 97.4819 46.04L97.2819 46.28H97.1219L97.0819 46.24C96.8952 46.1867 96.6552 46.08 96.3619 45.92C96.2819 45.84 96.2152 45.8 96.1619 45.8C96.1352 45.7733 96.1085 45.7467 96.0819 45.72C96.0552 45.72 96.0285 45.7067 96.0019 45.68C95.9485 45.6267 95.9219 45.6 95.9219 45.6C95.8952 45.5733 95.8685 45.56 95.8419 45.56C95.8419 45.56 95.8285 45.5467 95.8019 45.52C95.7485 45.4667 95.6952 45.4133 95.6419 45.36C95.5885 45.3333 95.5085 45.2533 95.4019 45.12C95.2952 45.0133 95.2019 44.9067 95.1219 44.8C95.0685 44.72 95.0019 44.6267 94.9219 44.52C94.8685 44.4133 94.8019 44.3067 94.7219 44.2C94.6685 44.0933 94.6152 43.9467 94.5619 43.76C94.4552 43.5733 94.3885 43.3467 94.3619 43.08C94.3085 42.9467 94.2685 42.8 94.2419 42.64C94.2419 42.48 94.2285 42.32 94.2019 42.16C94.1219 41.44 94.1219 40.8133 94.2019 40.28C94.2552 39.7733 94.3085 39.32 94.3619 38.92C94.4419 38.4933 94.5085 38.1733 94.5619 37.96C94.6152 37.8267 94.6419 37.7333 94.6419 37.68C94.6419 37.6267 94.6552 37.5733 94.6819 37.52C94.6819 37.4667 94.6819 37.4133 94.6819 37.36C94.7085 37.3067 94.7352 37.24 94.7619 37.16C94.8152 37 94.8419 36.9067 94.8419 36.88C94.8419 36.8533 94.8685 36.7733 94.9219 36.64V36.6C94.8952 36.6 94.8819 36.6133 94.8819 36.64V36.72C94.8285 36.8267 94.8019 36.88 94.8019 36.88C94.7752 36.9067 94.7619 36.9333 94.7619 36.96C94.7085 37.1733 94.6552 37.3733 94.6019 37.56C94.5752 37.7467 94.5352 37.9067 94.4819 38.04C94.4819 38.0933 94.4552 38.2533 94.4019 38.52C94.3485 38.7333 94.3085 38.8933 94.2819 39C94.2819 39.0533 94.2685 39.1333 94.2419 39.24C94.2419 39.3467 94.2285 39.4667 94.2019 39.6C94.1752 39.7333 94.1619 39.8667 94.1619 40C94.1619 40.1067 94.1485 40.2133 94.1219 40.32C94.1219 40.4533 94.1085 40.5733 94.0819 40.68C94.0819 40.76 94.0819 40.84 94.0819 40.92V41.16V41.44V41.72C94.0819 41.8267 94.0952 41.9067 94.1219 41.96V42.08V42.2C94.1219 42.2533 94.1219 42.3067 94.1219 42.36C94.1485 42.44 94.1619 42.5067 94.1619 42.56C94.1885 42.6133 94.2019 42.6667 94.2019 42.72C94.2019 42.7733 94.2152 42.8267 94.2419 42.88C94.2419 42.9333 94.2419 42.9733 94.2419 43C94.2685 43.0267 94.2819 43.0533 94.2819 43.08C94.3352 43.24 94.3752 43.3867 94.4019 43.52C94.4552 43.6 94.4952 43.68 94.5219 43.76C94.5752 43.8667 94.6285 43.9733 94.6819 44.08C94.7619 44.2933 94.8685 44.4933 95.0019 44.68C95.1085 44.8933 95.2685 45.0933 95.4819 45.28L95.7619 45.56C95.8419 45.5867 95.9352 45.6533 96.0419 45.76C96.1219 45.8133 96.2019 45.8667 96.2819 45.92C96.3885 45.9733 96.4952 46.0267 96.6019 46.08C96.6285 46.08 96.6419 46.08 96.6419 46.08C96.6685 46.1067 96.6952 46.12 96.7219 46.12C96.7485 46.1467 96.7752 46.16 96.8019 46.16C96.8285 46.16 96.8552 46.1733 96.8819 46.2C96.9085 46.2 96.9219 46.2 96.9219 46.2C96.9485 46.2267 96.9752 46.24 97.0019 46.24C97.0285 46.24 97.0552 46.2533 97.0819 46.28ZM78.8419 31.48C78.8685 31.4267 78.8685 31.4133 78.8419 31.44L78.7619 31.52C78.7352 31.6 78.6952 31.72 78.6419 31.88C78.5885 32.0133 78.5352 32.16 78.4819 32.32C78.4819 32.3733 78.4685 32.4 78.4419 32.4C78.4152 32.5333 78.3619 32.68 78.2819 32.84C78.2285 33.0533 78.1885 33.1733 78.1619 33.2C78.1352 33.2533 78.1085 33.32 78.0819 33.4C78.0552 33.4533 78.0419 33.4933 78.0419 33.52C78.0152 33.5467 78.0152 33.56 78.0419 33.56C78.0419 33.5333 78.0552 33.4933 78.0819 33.44C78.1085 33.3867 78.1352 33.3333 78.1619 33.28C78.1885 33.2267 78.2152 33.16 78.2419 33.08C78.2685 33 78.2819 32.9467 78.2819 32.92C78.3085 32.8933 78.3219 32.8667 78.3219 32.84C78.3485 32.7867 78.3752 32.7333 78.4019 32.68C78.4552 32.5733 78.4819 32.52 78.4819 32.52V32.48C78.5352 32.4 78.5752 32.32 78.6019 32.24C78.6285 32.16 78.6685 32.0533 78.7219 31.92C78.7752 31.7867 78.8019 31.7067 78.8019 31.68C78.8019 31.6267 78.8152 31.56 78.8419 31.48ZM79.6019 29.48C79.6019 29.4267 79.5885 29.4133 79.5619 29.44C79.5352 29.4667 79.5219 29.5067 79.5219 29.56C79.4152 29.72 79.3485 29.8933 79.3219 30.08C79.2952 30.1867 79.2552 30.28 79.2019 30.36C79.1752 30.44 79.1352 30.5467 79.0819 30.68C79.0285 30.8133 79.0019 30.9067 79.0019 30.96C79.0019 30.9867 79.0019 31.0267 79.0019 31.08C78.9752 31.1333 78.9752 31.12 79.0019 31.04C79.0285 30.96 79.0685 30.8533 79.1219 30.72C79.1752 30.5867 79.2152 30.48 79.2419 30.4C79.2952 30.2933 79.3485 30.1467 79.4019 29.96C79.4819 29.7733 79.5219 29.6667 79.5219 29.64C79.5219 29.6133 79.5485 29.56 79.6019 29.48ZM81.6019 23.08C81.6019 23 81.5752 23.0133 81.5219 23.12C81.4952 23.1733 81.4819 23.2267 81.4819 23.28C81.4552 23.4133 81.4285 23.5333 81.4019 23.64C81.3752 23.7467 81.3485 23.8267 81.3219 23.88C81.2952 23.9333 81.2685 24.0267 81.2419 24.16C81.2152 24.2667 81.1885 24.3467 81.1619 24.4C81.1352 24.48 81.1085 24.6 81.0819 24.76C81.0552 24.8933 81.0152 25.0267 80.9619 25.16C80.9085 25.2933 80.8685 25.4 80.8419 25.48C80.8152 25.5333 80.7885 25.6267 80.7619 25.76C80.7085 25.8933 80.6685 26 80.6419 26.08C80.6419 26.1333 80.6152 26.2267 80.5619 26.36C80.5085 26.4933 80.4819 26.5867 80.4819 26.64C80.4819 26.6933 80.4552 26.7733 80.4019 26.88C80.3485 27.0933 80.2819 27.3333 80.2019 27.6C80.1485 27.7067 80.0952 27.84 80.0419 28C80.0152 28.1333 79.9752 28.2533 79.9219 28.36C79.8152 28.6 79.7485 28.8133 79.7219 29C79.6952 29.1067 79.6952 29.1067 79.7219 29C79.7752 28.8933 79.8419 28.7467 79.9219 28.56C79.9752 28.3733 80.0019 28.2533 80.0019 28.2C80.0285 28.1467 80.0685 28.0533 80.1219 27.92C80.1752 27.76 80.2152 27.6267 80.2419 27.52C80.2952 27.4133 80.3485 27.2533 80.4019 27.04C80.5085 26.7733 80.6152 26.48 80.7219 26.16C80.7485 26.08 80.7619 26 80.7619 25.92C80.7885 25.8133 80.8285 25.72 80.8819 25.64C80.9352 25.4 80.9885 25.24 81.0419 25.16C81.0952 25.0267 81.1352 24.8933 81.1619 24.76C81.1885 24.6267 81.2152 24.5067 81.2419 24.4C81.2952 24.2667 81.3219 24.16 81.3219 24.08C81.3485 23.9733 81.3752 23.8933 81.4019 23.84C81.4552 23.7067 81.4819 23.6267 81.4819 23.6C81.4819 23.5467 81.4952 23.48 81.5219 23.4C81.5485 23.2933 81.5619 23.24 81.5619 23.24C81.5619 23.2133 81.5752 23.16 81.6019 23.08ZM77.0419 35C77.0419 35.08 77.0285 35.12 77.0019 35.12L77.0419 35.08C77.0419 35.0533 77.0419 35.04 77.0419 35.04C77.0685 35.0133 77.0819 34.9733 77.0819 34.92C77.1352 34.8667 77.1619 34.8 77.1619 34.72C77.1885 34.64 77.2285 34.5467 77.2819 34.44C77.3619 34.28 77.4419 34.08 77.5219 33.84C77.6285 33.6267 77.6952 33.4667 77.7219 33.36C77.7752 33.2267 77.8285 33.1067 77.8819 33C77.9352 32.8933 77.9752 32.8 78.0019 32.72C78.0285 32.6667 78.0419 32.6 78.0419 32.52C78.0685 32.44 78.1085 32.36 78.1619 32.28C78.2152 32.0667 78.2685 31.8933 78.3219 31.76C78.4019 31.6 78.4685 31.44 78.5219 31.28C78.5752 31.2 78.6019 31.12 78.6019 31.04C78.6285 30.96 78.6685 30.88 78.7219 30.8C78.7485 30.6933 78.7752 30.6 78.8019 30.52C78.8285 30.4133 78.8685 30.2933 78.9219 30.16C79.0285 29.92 79.1485 29.6133 79.2819 29.24C79.4152 28.84 79.5485 28.4133 79.6819 27.96C79.7619 27.7467 79.8419 27.5333 79.9219 27.32C80.0019 27.08 80.0685 26.8533 80.1219 26.64C80.2019 26.4267 80.2685 26.2267 80.3219 26.04C80.4019 25.8267 80.4685 25.64 80.5219 25.48C80.7352 24.7867 80.9219 24.1467 81.0819 23.56C81.2419 22.9733 81.3752 22.52 81.4819 22.2C81.5885 21.88 81.6419 21.68 81.6419 21.6C81.6685 21.4933 81.7085 21.32 81.7619 21.08C81.8152 20.8667 81.8419 20.7333 81.8419 20.68C81.8685 20.6267 81.9085 20.52 81.9619 20.36V20.28C81.9352 20.28 81.9219 20.2933 81.9219 20.32V20.36V20.48C81.8685 20.5867 81.8419 20.6667 81.8419 20.72L81.8019 20.8C81.7219 21.0933 81.6419 21.3867 81.5619 21.68C81.5085 21.9467 81.4552 22.16 81.4019 22.32C81.3485 22.5333 81.2819 22.76 81.2019 23C81.1485 23.1333 81.1085 23.2667 81.0819 23.4C81.0552 23.5067 81.0285 23.6 81.0019 23.68C80.9485 23.76 80.9085 23.88 80.8819 24.04C80.8552 24.1733 80.8152 24.32 80.7619 24.48C80.6285 24.8 80.5219 25.1467 80.4419 25.52C80.3619 25.8133 80.2819 26.0667 80.2019 26.28C80.1219 26.4933 80.0419 26.7333 79.9619 27C79.9085 27.1333 79.8685 27.2533 79.8419 27.36C79.8152 27.4667 79.7752 27.5733 79.7219 27.68C79.6685 27.8133 79.5752 28.08 79.4419 28.48C79.3885 28.6667 79.3485 28.8133 79.3219 28.92C79.2952 29.0267 79.2552 29.12 79.2019 29.2C79.1752 29.28 79.1485 29.36 79.1219 29.44C79.1219 29.52 79.0952 29.6267 79.0419 29.76C78.9885 29.8933 78.9352 30.04 78.8819 30.2C78.8285 30.3333 78.7752 30.4667 78.7219 30.6C78.6685 30.8133 78.6152 30.96 78.5619 31.04C78.5085 31.2533 78.4552 31.4 78.4019 31.48C78.3485 31.6133 78.2819 31.7733 78.2019 31.96C78.1485 32.12 78.0952 32.2933 78.0419 32.48C77.9885 32.56 77.9485 32.64 77.9219 32.72C77.9219 32.8 77.8952 32.88 77.8419 32.96C77.8152 33.04 77.7885 33.12 77.7619 33.2C77.7352 33.28 77.7085 33.3467 77.6819 33.4C77.6285 33.5333 77.5752 33.6667 77.5219 33.8C77.4685 33.9333 77.4152 34.0667 77.3619 34.2C77.3085 34.3333 77.2552 34.4667 77.2019 34.6C77.1485 34.7333 77.0952 34.8533 77.0419 34.96V35ZM77.3219 35.36C77.3485 35.3067 77.3619 35.2533 77.3619 35.2C77.4152 35.0933 77.4552 35 77.4819 34.92C77.5352 34.8133 77.5619 34.76 77.5619 34.76V34.72C77.5619 34.6933 77.5485 34.7067 77.5219 34.76C77.4952 34.8133 77.4685 34.8667 77.4419 34.92C77.4419 34.9733 77.4152 35.0533 77.3619 35.16C77.2819 35.32 77.2152 35.48 77.1619 35.64C77.1085 35.72 77.0819 35.76 77.0819 35.76C77.0819 35.8133 77.0685 35.8667 77.0419 35.92C77.0152 35.9733 76.9885 36.0267 76.9619 36.08V36.12V36.16V36.12C76.9885 36.12 77.0019 36.1067 77.0019 36.08V36C77.0819 35.92 77.1219 35.84 77.1219 35.76C77.0952 35.8133 77.0952 35.8267 77.1219 35.8C77.1485 35.7467 77.1752 35.6933 77.2019 35.64C77.2285 35.5867 77.2419 35.5467 77.2419 35.52C77.2685 35.4667 77.2952 35.4133 77.3219 35.36ZM88.0819 30.04V30V30.04C88.0819 30.0667 88.0685 30.0933 88.0419 30.12C88.0419 30.12 88.0419 30.1333 88.0419 30.16C88.0419 30.1867 88.0285 30.2133 88.0019 30.24C88.0019 30.2667 88.0019 30.2933 88.0019 30.32L87.8819 30.68V30.76C87.8552 30.7867 87.8419 30.8267 87.8419 30.88C87.8419 30.9067 87.8285 30.9333 87.8019 30.96V31H87.8419V30.96V30.92C87.8419 30.8933 87.8419 30.8667 87.8419 30.84C87.8685 30.7867 87.8819 30.7467 87.8819 30.72C87.8819 30.7733 87.8819 30.7867 87.8819 30.76C87.9085 30.7333 87.9219 30.6933 87.9219 30.64C87.9752 30.5333 88.0019 30.4667 88.0019 30.44C88.0552 30.3867 88.0552 30.36 88.0019 30.36C88.0285 30.3067 88.0419 30.28 88.0419 30.28C88.0419 30.2533 88.0552 30.2133 88.0819 30.16V30.04ZM88.8019 27.8C88.8019 27.8267 88.7885 27.84 88.7619 27.84C88.7085 27.92 88.6552 28.0933 88.6019 28.36C88.5752 28.3867 88.5619 28.4133 88.5619 28.44C88.5352 28.4933 88.5219 28.5467 88.5219 28.6C88.5219 28.6267 88.5085 28.6667 88.4819 28.72C88.4285 28.88 88.4019 28.9733 88.4019 29C88.4019 29.0267 88.3885 29.0667 88.3619 29.12C88.3619 29.1467 88.3619 29.1733 88.3619 29.2V29.12C88.3619 29.0933 88.3619 29.08 88.3619 29.08C88.3885 29.08 88.4019 29.0667 88.4019 29.04C88.4019 29.0133 88.4019 28.9867 88.4019 28.96C88.4285 28.9333 88.4419 28.9067 88.4419 28.88C88.4419 28.8533 88.4552 28.8267 88.4819 28.8C88.5085 28.7733 88.5219 28.7467 88.5219 28.72C88.5219 28.6933 88.5352 28.6667 88.5619 28.64C88.5619 28.6133 88.5619 28.6 88.5619 28.6C88.5885 28.5733 88.6019 28.5467 88.6019 28.52V28.48C88.6285 28.4267 88.6419 28.3733 88.6419 28.32C88.6685 28.2667 88.6952 28.2 88.7219 28.12C88.7752 27.9867 88.8019 27.88 88.8019 27.8ZM88.8819 27.52C88.8819 27.6 88.9085 27.5333 88.9619 27.32C89.0152 27.2133 89.0419 27.1333 89.0419 27.08C89.0419 27.0267 89.0685 26.9333 89.1219 26.8C89.1752 26.6667 89.2019 26.6 89.2019 26.6C89.2019 26.5733 89.2152 26.52 89.2419 26.44C89.2419 26.4133 89.2285 26.4133 89.2019 26.44L89.1619 26.48C89.1352 26.56 89.1085 26.6267 89.0819 26.68C89.0819 26.7333 89.0685 26.8 89.0419 26.88C89.0419 26.96 89.0019 27.0933 88.9219 27.28C88.8952 27.4133 88.8819 27.4933 88.8819 27.52ZM92.1219 21.6C92.0685 21.7333 91.9885 21.9067 91.8819 22.12C91.8019 22.3333 91.7352 22.5067 91.6819 22.64C91.6552 22.6933 91.6285 22.7733 91.6019 22.88C91.5752 22.9867 91.5352 23.1067 91.4819 23.24C91.4285 23.3733 91.3885 23.5067 91.3619 23.64C91.3352 23.7733 91.2952 23.9067 91.2419 24.04C91.1885 24.1733 91.1485 24.28 91.1219 24.36C91.0952 24.44 91.0685 24.52 91.0419 24.6C90.9885 24.7067 90.9485 24.8 90.9219 24.88C90.8685 24.9867 90.8285 25.08 90.8019 25.16C90.7219 25.3733 90.6552 25.5467 90.6019 25.68C90.5752 25.8133 90.5219 26.0267 90.4419 26.32C90.3885 26.4533 90.3485 26.5733 90.3219 26.68C90.3219 26.76 90.3085 26.8267 90.2819 26.88C90.2552 26.9333 90.2419 27 90.2419 27.08C90.2419 27.1333 90.2285 27.2133 90.2019 27.32C90.1485 27.5333 90.0819 27.76 90.0019 28C89.9485 28.24 89.8952 28.48 89.8419 28.72L89.7219 29.08C89.6952 29.1333 89.6685 29.2 89.6419 29.28C89.6152 29.36 89.5885 29.4267 89.5619 29.48C89.4819 29.7733 89.4019 30.0133 89.3219 30.2C89.2685 30.4133 89.2152 30.6267 89.1619 30.84C89.1085 31.0267 89.0685 31.2133 89.0419 31.4C89.0152 31.4 89.0019 31.4267 89.0019 31.48L88.9619 31.56C88.9619 31.56 88.9752 31.5733 89.0019 31.6C89.0019 31.6267 89.0152 31.64 89.0419 31.64L89.0819 31.6L89.0419 31.56H89.0819V31.52C89.0819 31.52 89.0685 31.5067 89.0419 31.48C89.0952 31.4 89.1485 31.28 89.2019 31.12C89.2552 30.96 89.3085 30.7867 89.3619 30.6C89.4685 30.2533 89.5352 30.04 89.5619 29.96C89.5885 29.8533 89.6552 29.6533 89.7619 29.36C89.7619 29.3067 89.7619 29.2667 89.7619 29.24C89.7885 29.2133 89.8019 29.1733 89.8019 29.12C89.8552 29.0667 89.8819 29.0133 89.8819 28.96C89.9085 28.88 89.9219 28.8133 89.9219 28.76C89.9485 28.7067 89.9752 28.64 90.0019 28.56C90.0552 28.4267 90.0952 28.3067 90.1219 28.2C90.1752 28.0667 90.2285 27.8933 90.2819 27.68C90.3085 27.6 90.3352 27.4933 90.3619 27.36C90.3885 27.2267 90.4285 27.0933 90.4819 26.96C90.5352 26.8 90.5885 26.64 90.6419 26.48C90.6952 26.32 90.7485 26.16 90.8019 26C90.8552 25.8133 90.9085 25.64 90.9619 25.48C91.0419 25.2933 91.1085 25.12 91.1619 24.96C91.2152 24.8 91.2685 24.64 91.3219 24.48C91.3752 24.32 91.4285 24.1733 91.4819 24.04L91.7219 23.32C91.8285 23.08 91.9085 22.84 91.9619 22.6C92.0685 22.3333 92.1352 22.1467 92.1619 22.04C92.2419 21.8 92.3085 21.6533 92.3619 21.6L92.5219 21.12C92.5219 21.0667 92.5219 21.0133 92.5219 20.96C92.5485 20.9067 92.5752 20.8267 92.6019 20.72C92.6819 20.56 92.7219 20.4667 92.7219 20.44C92.7219 20.4133 92.7352 20.3867 92.7619 20.36C92.7619 20.3333 92.7752 20.32 92.8019 20.32C92.8019 20.32 92.8152 20.3067 92.8419 20.28C92.8419 20.28 92.8419 20.2667 92.8419 20.24C92.8685 20.2133 92.8685 20.1867 92.8419 20.16C92.8152 20.1333 92.7885 20.12 92.7619 20.12H92.6819C92.6819 20.1467 92.6685 20.16 92.6419 20.16C92.6419 20.16 92.6419 20.1733 92.6419 20.2V20.28V20.32C92.6419 20.3467 92.6285 20.36 92.6019 20.36C92.6019 20.36 92.6019 20.3733 92.6019 20.4C92.5752 20.4267 92.5619 20.4533 92.5619 20.48C92.4552 20.6933 92.3619 20.9067 92.2819 21.12C92.2285 21.3067 92.1752 21.4667 92.1219 21.6ZM89.3219 26.16C89.2952 26.2133 89.2952 26.2133 89.3219 26.16C89.3485 26.08 89.3885 25.9733 89.4419 25.84C89.4952 25.7067 89.5219 25.6267 89.5219 25.6C89.5219 25.5733 89.5485 25.5067 89.6019 25.4C89.6552 25.2933 89.6819 25.2133 89.6819 25.16C89.7085 25.08 89.7485 24.9733 89.8019 24.84C89.8552 24.7067 89.9219 24.52 90.0019 24.28C90.0819 24.0133 90.1485 23.7867 90.2019 23.6C90.2819 23.4133 90.3352 23.2533 90.3619 23.12C90.4152 22.96 90.4685 22.8267 90.5219 22.72C90.5485 22.6133 90.5752 22.52 90.6019 22.44C90.6285 22.36 90.6419 22.2933 90.6419 22.24C90.6419 22.24 90.6285 22.2533 90.6019 22.28C90.5752 22.3067 90.5619 22.3333 90.5619 22.36C90.5085 22.5733 90.4685 22.7067 90.4419 22.76C90.4152 22.8133 90.3885 22.88 90.3619 22.96C90.3352 23.0133 90.3085 23.0667 90.2819 23.12C90.2819 23.1733 90.2685 23.24 90.2419 23.32C90.2152 23.4 90.1885 23.4933 90.1619 23.6C90.0819 23.76 90.0285 23.88 90.0019 23.96C89.9485 24.04 89.9219 24.1067 89.9219 24.16C89.9219 24.2133 89.8952 24.28 89.8419 24.36C89.8152 24.4667 89.8019 24.5467 89.8019 24.6C89.8019 24.6267 89.7885 24.6667 89.7619 24.72L89.6419 25.2C89.5352 25.3867 89.4685 25.56 89.4419 25.72C89.4152 25.7733 89.3885 25.84 89.3619 25.92C89.3352 26 89.3219 26.08 89.3219 26.16ZM90.7219 22C90.7219 22.0533 90.7352 22.04 90.7619 21.96L90.8819 21.72C90.9352 21.56 90.9752 21.4267 91.0019 21.32C91.0552 21.16 91.0952 21.0533 91.1219 21C91.1485 20.9467 91.1619 20.9067 91.1619 20.88C91.1885 20.8533 91.2019 20.8267 91.2019 20.8C91.2285 20.7467 91.2685 20.6533 91.3219 20.52C91.3752 20.3867 91.4152 20.28 91.4419 20.2C91.4952 20.0933 91.5352 20.0133 91.5619 19.96V19.88V19.92L91.5219 19.96C91.4152 20.2267 91.2952 20.5067 91.1619 20.8C91.0552 21.0667 90.9619 21.3067 90.8819 21.52C90.8019 21.7333 90.7619 21.84 90.7619 21.84C90.7619 21.84 90.7485 21.8933 90.7219 22ZM87.6819 30.2C87.6552 30.2267 87.6419 30.2533 87.6419 30.28C87.6685 30.28 87.6685 30.2667 87.6419 30.24C87.6685 30.1867 87.7085 30.0933 87.7619 29.96C87.8152 29.8 87.8685 29.6133 87.9219 29.4C87.9752 29.2667 88.0019 29.16 88.0019 29.08C88.0285 28.9733 88.0552 28.8933 88.0819 28.84C88.1085 28.7867 88.1219 28.76 88.1219 28.76C88.1219 28.7333 88.1352 28.6933 88.1619 28.64C88.1619 28.5867 88.1885 28.48 88.2419 28.32C88.3219 28.0533 88.3885 27.84 88.4419 27.68C88.4952 27.4933 88.5752 27.2267 88.6819 26.88C88.7352 26.7733 88.7752 26.68 88.8019 26.6C88.8285 26.5467 88.8419 26.4933 88.8419 26.44C88.8419 26.36 88.8552 26.2933 88.8819 26.24C88.9619 26.0533 89.0552 25.7733 89.1619 25.4C89.2152 25.2667 89.2685 25.12 89.3219 24.96C89.3752 24.8 89.4285 24.6533 89.4819 24.52C89.5085 24.4667 89.5219 24.4 89.5219 24.32C89.5485 24.24 89.5752 24.1733 89.6019 24.12C89.6552 24.0667 89.6819 24.0133 89.6819 23.96C89.7085 23.88 89.7352 23.8133 89.7619 23.76C89.8152 23.6267 89.8552 23.52 89.8819 23.44C89.9085 23.3333 89.9352 23.2133 89.9619 23.08L90.2019 22.48C90.3085 22.16 90.4152 21.8667 90.5219 21.6C90.5752 21.4933 90.6019 21.4133 90.6019 21.36C90.6285 21.3067 90.6552 21.2533 90.6819 21.2C90.6819 21.1467 90.6819 21.1067 90.6819 21.08C90.7085 21.0267 90.7352 20.96 90.7619 20.88C90.8152 20.7467 90.8419 20.6667 90.8419 20.64C90.8685 20.6133 90.9085 20.5333 90.9619 20.4V20.36C90.9619 20.36 90.9485 20.3733 90.9219 20.4C90.8952 20.4267 90.8819 20.4533 90.8819 20.48C90.8819 20.5067 90.8685 20.5333 90.8419 20.56C90.8152 20.6133 90.8019 20.6533 90.8019 20.68C90.6952 20.9467 90.6285 21.1333 90.6019 21.24C90.5485 21.32 90.5085 21.4 90.4819 21.48C90.4819 21.56 90.4685 21.6267 90.4419 21.68C90.3885 21.7867 90.3219 21.9333 90.2419 22.12C90.1885 22.3067 90.1352 22.4533 90.0819 22.56C90.0285 22.6933 89.9619 22.88 89.8819 23.12C89.8285 23.3333 89.7619 23.5467 89.6819 23.76C89.6019 24 89.5352 24.1733 89.4819 24.28C89.4552 24.4133 89.4019 24.5733 89.3219 24.76C89.2685 24.9733 89.2152 25.1333 89.1619 25.24C89.1352 25.3467 89.0819 25.52 89.0019 25.76C88.9219 26 88.8685 26.16 88.8419 26.24C88.8152 26.32 88.7752 26.44 88.7219 26.6C88.6419 26.9467 88.5352 27.3467 88.4019 27.8C88.3485 27.9067 88.3085 28.0133 88.2819 28.12C88.2552 28.2267 88.2152 28.3333 88.1619 28.44C88.1619 28.4933 88.1485 28.5333 88.1219 28.56C88.1219 28.56 88.1219 28.5867 88.1219 28.64C88.0952 28.6667 88.0819 28.72 88.0819 28.8C88.0552 28.88 88.0152 28.9733 87.9619 29.08C87.9085 29.2667 87.8552 29.4667 87.8019 29.68C87.7752 29.8667 87.7352 30.04 87.6819 30.2ZM97.7619 34.4C97.7885 34.4267 97.8152 34.44 97.8419 34.44C97.8685 34.44 97.8819 34.44 97.8819 34.44C97.8819 34.4133 97.8685 34.4 97.8419 34.4H97.8819L97.8419 34.36C97.8685 34.2533 97.9485 34.0933 98.0819 33.88C98.1885 33.6933 98.2419 33.5733 98.2419 33.52C98.2685 33.4667 98.3085 33.36 98.3619 33.2C98.4419 33.04 98.4952 32.9067 98.5219 32.8C98.5752 32.6933 98.6419 32.5333 98.7219 32.32C98.7752 32.16 98.8285 32.0267 98.8819 31.92C98.9352 31.84 98.9619 31.76 98.9619 31.68C98.9885 31.5733 99.0285 31.48 99.0819 31.4C99.1619 31.1867 99.2419 31 99.3219 30.84C99.4019 30.6533 99.4685 30.4933 99.5219 30.36C99.5752 30.2267 99.6285 30.08 99.6819 29.92C99.7352 29.84 99.7885 29.72 99.8419 29.56C99.9219 29.2933 100.002 29.1067 100.082 29C100.135 28.8667 100.162 28.7733 100.162 28.72C100.162 28.6667 100.175 28.6 100.202 28.52C100.255 28.4133 100.282 28.3333 100.282 28.28C100.282 28.3067 100.282 28.32 100.282 28.32C100.309 28.32 100.322 28.3067 100.322 28.28H100.362C100.362 28.2533 100.362 28.24 100.362 28.24C100.389 28.24 100.402 28.24 100.402 28.24C100.402 28.2133 100.389 28.2 100.362 28.2C100.309 28.1467 100.282 28.12 100.282 28.12H100.202C100.175 28.12 100.162 28.1333 100.162 28.16V28.24H100.202L100.122 28.32C100.069 28.4 100.015 28.52 99.9619 28.68C99.9085 28.84 99.8819 28.9333 99.8819 28.96C99.8552 29.0133 99.8019 29.1067 99.7219 29.24C99.6685 29.3467 99.6152 29.44 99.5619 29.52C99.5619 29.5733 99.5219 29.68 99.4419 29.84C99.3885 30.0533 99.3485 30.2 99.3219 30.28C99.2685 30.4133 99.2152 30.52 99.1619 30.6C99.1085 30.6533 99.0552 30.7467 99.0019 30.88C98.9485 31.0133 98.9085 31.12 98.8819 31.2C98.8552 31.2533 98.8152 31.36 98.7619 31.52C98.7085 31.6533 98.6685 31.7467 98.6419 31.8C98.6419 31.8533 98.6285 31.9467 98.6019 32.08C98.5485 32.3733 98.4685 32.6267 98.3619 32.84C98.3085 32.9733 98.2552 33.12 98.2019 33.28C98.1485 33.4133 98.0952 33.5333 98.0419 33.64C97.9885 33.7467 97.9352 33.8533 97.8819 33.96C97.8552 34.0667 97.8285 34.1733 97.8019 34.28L97.7619 34.32V34.4ZM94.6419 42.76C94.6685 42.8133 94.6552 42.7067 94.6019 42.44V42.2C94.6019 42.1467 94.5885 42.1067 94.5619 42.08C94.5619 42.0533 94.5619 42.0133 94.5619 41.96V41.84V41.68C94.5619 41.6267 94.5485 41.5867 94.5219 41.56C94.5219 41.5067 94.5219 41.44 94.5219 41.36C94.5219 41.3067 94.5219 41.2267 94.5219 41.12C94.5219 41.0133 94.5352 40.8933 94.5619 40.76C94.5619 40.6267 94.5619 40.4933 94.5619 40.36C94.5619 40.2267 94.5752 40.12 94.6019 40.04C94.6285 39.8267 94.6419 39.64 94.6419 39.48C94.6685 39.32 94.6952 39.2 94.7219 39.12C94.7485 38.9867 94.7619 38.88 94.7619 38.8C94.7885 38.72 94.7885 38.68 94.7619 38.68C94.7619 38.68 94.7752 38.6533 94.8019 38.6C94.8019 38.5467 94.7885 38.5333 94.7619 38.56C94.7619 38.56 94.7619 38.5733 94.7619 38.6C94.7352 38.6267 94.7219 38.6533 94.7219 38.68V38.72C94.6952 38.8 94.6819 38.88 94.6819 38.96C94.6819 39.0133 94.6685 39.0667 94.6419 39.12C94.6419 39.28 94.6152 39.4133 94.5619 39.52C94.5619 39.5733 94.5619 39.6533 94.5619 39.76C94.5619 39.84 94.5485 39.9333 94.5219 40.04C94.5219 40.1467 94.5085 40.2267 94.4819 40.28C94.4819 40.3067 94.4819 40.3733 94.4819 40.48C94.4819 40.56 94.4685 40.6267 94.4419 40.68C94.4419 40.7067 94.4419 40.7733 94.4419 40.88V41.08C94.4685 41.1333 94.4819 41.2 94.4819 41.28V41.52C94.4819 41.5733 94.4819 41.6133 94.4819 41.64C94.5085 41.6667 94.5219 41.7067 94.5219 41.76V42.04C94.5219 42.0933 94.5219 42.1333 94.5219 42.16C94.5485 42.2133 94.5619 42.2667 94.5619 42.32C94.5619 42.4533 94.5885 42.6 94.6419 42.76ZM95.1219 44.12C95.1219 44.0933 95.0952 44.0267 95.0419 43.92C94.9885 43.8133 94.9219 43.64 94.8419 43.4C94.7885 43.2933 94.7619 43.2267 94.7619 43.2C94.7619 43.1733 94.7485 43.1333 94.7219 43.08V43.12V43.16C94.7219 43.2133 94.7219 43.24 94.7219 43.24C94.7485 43.2667 94.7619 43.3067 94.7619 43.36C94.7619 43.36 94.7885 43.4133 94.8419 43.52C94.8685 43.5733 94.8819 43.6267 94.8819 43.68C94.9085 43.7333 94.9485 43.8133 95.0019 43.92C95.0552 44.0267 95.0952 44.0933 95.1219 44.12ZM95.6019 44.8C95.5752 44.7467 95.5485 44.7067 95.5219 44.68C95.5219 44.68 95.5085 44.6533 95.4819 44.6C95.4285 44.5467 95.3885 44.5067 95.3619 44.48C95.3619 44.4533 95.3352 44.4133 95.2819 44.36C95.2552 44.3333 95.2419 44.3333 95.2419 44.36C95.2419 44.3867 95.2552 44.4133 95.2819 44.44C95.2819 44.4667 95.2952 44.4933 95.3219 44.52C95.3485 44.5467 95.3752 44.5867 95.4019 44.64C95.4552 44.6933 95.4819 44.7333 95.4819 44.76C95.5085 44.7867 95.5485 44.8267 95.6019 44.88C95.6285 44.88 95.6419 44.8933 95.6419 44.92L95.7619 45.04C95.7885 45.0667 95.8019 45.08 95.8019 45.08C95.8285 45.08 95.8552 45.0933 95.8819 45.12L96.0019 45.24C96.0019 45.24 96.0285 45.2667 96.0819 45.32C96.0819 45.32 96.1085 45.3333 96.1619 45.36C96.2152 45.4133 96.2419 45.44 96.2419 45.44H96.2819C96.2819 45.44 96.2552 45.4133 96.2019 45.36C96.1752 45.36 96.1485 45.3467 96.1219 45.32C96.1219 45.32 96.0819 45.28 96.0019 45.2C95.9752 45.2 95.9485 45.1867 95.9219 45.16L95.8019 45.04C95.7485 44.9867 95.7219 44.96 95.7219 44.96V44.92L95.6019 44.8ZM95.4819 36.16C95.3485 36.4267 95.2285 36.7067 95.1219 37C95.0419 37.2933 94.9752 37.56 94.9219 37.8C94.8952 37.9333 94.8685 38.0267 94.8419 38.08C94.8419 38.1067 94.8419 38.1333 94.8419 38.16V38.32C94.8152 38.3733 94.8019 38.4 94.8019 38.4C94.8285 38.3733 94.8552 38.3333 94.8819 38.28C94.8819 38.2267 94.8952 38.1467 94.9219 38.04C94.9485 37.9067 94.9885 37.76 95.0419 37.6C95.0952 37.44 95.1219 37.3333 95.1219 37.28C95.1485 37.2267 95.1619 37.1733 95.1619 37.12C95.1885 37.0933 95.2285 36.9733 95.2819 36.76C95.3352 36.6267 95.3752 36.52 95.4019 36.44C95.4285 36.3333 95.4552 36.2533 95.4819 36.2V36.16L95.5219 36.08H95.4819V36.12V36.16ZM114.239 32.8C114.239 32.88 114.265 32.9067 114.319 32.88C114.399 32.8267 114.439 32.8267 114.439 32.88C114.439 32.9067 114.252 33.2267 113.879 33.84C113.505 34.4533 113.065 35.1467 112.559 35.92C112.052 36.6667 111.559 37.3867 111.079 38.08C110.599 38.7733 110.252 39.24 110.039 39.48C109.612 39.9333 109.239 40.2133 108.919 40.32C108.625 40.4267 108.332 40.44 108.039 40.36C107.905 40.3333 107.745 40.2533 107.559 40.12C107.372 39.96 107.185 39.7867 106.999 39.6C106.839 39.3867 106.692 39.1733 106.559 38.96C106.452 38.72 106.399 38.4933 106.399 38.28C105.972 38.8133 105.572 39.3067 105.199 39.76C104.879 40.1333 104.545 40.5067 104.199 40.88C103.879 41.2267 103.639 41.4667 103.479 41.6C103.132 41.84 102.879 41.9733 102.719 42C102.585 42.0533 102.412 42.0533 102.199 42C101.985 41.9467 101.745 41.8 101.479 41.56C101.212 41.32 100.972 41.12 100.759 40.96C100.545 40.8 100.292 40.5067 99.9985 40.08C99.7052 39.6267 99.5852 39.1333 99.6385 38.6C99.6918 37.56 99.9185 36.44 100.319 35.24C100.692 34.04 101.292 32.92 102.119 31.88C102.519 31.3733 102.999 30.9333 103.559 30.56C104.145 30.16 104.719 29.8667 105.279 29.68C105.839 29.4667 106.359 29.3867 106.839 29.44C107.319 29.4667 107.692 29.64 107.959 29.96C108.492 30.6 108.879 31.0933 109.119 31.44C109.359 31.76 109.492 32.0267 109.519 32.24C109.545 32.3467 109.519 32.4267 109.439 32.48C109.359 32.5067 109.265 32.5067 109.159 32.48C109.079 32.4267 108.972 32.36 108.839 32.28C108.732 32.1733 108.652 32.0533 108.599 31.92C108.465 31.6267 108.292 31.4133 108.079 31.28C107.892 31.1467 107.652 31.1867 107.359 31.4C107.172 31.56 106.865 31.9067 106.439 32.44C106.012 32.9467 105.572 33.5733 105.119 34.32C104.665 35.0667 104.239 35.8933 103.839 36.8C103.439 37.7067 103.172 38.6267 103.039 39.56C103.065 39.5867 103.119 39.6 103.199 39.6C103.252 39.6 103.332 39.5867 103.439 39.56C103.545 39.5333 103.665 39.4667 103.799 39.36C104.012 39.2 104.252 38.9733 104.519 38.68C104.785 38.36 105.025 38.0533 105.239 37.76C105.479 37.44 105.692 37.16 105.879 36.92C106.065 36.68 106.185 36.52 106.239 36.44C106.292 36.36 106.359 36.2133 106.439 36C106.519 35.76 106.612 35.48 106.719 35.16C106.825 34.84 106.959 34.5067 107.119 34.16C107.305 33.8133 107.519 33.4933 107.759 33.2C107.919 33.0133 108.065 32.8667 108.199 32.76C108.332 32.68 108.452 32.6267 108.559 32.6C108.665 32.5733 108.759 32.6267 108.839 32.76C108.919 32.9467 108.985 33.0667 109.039 33.12C108.985 33.1467 108.932 33.2133 108.879 33.32C108.825 33.3733 108.772 33.4267 108.719 33.48C108.692 33.5333 108.652 33.5867 108.599 33.64L108.479 33.88C108.479 33.9067 108.492 33.9067 108.519 33.88C108.519 33.8533 108.545 33.8133 108.599 33.76C108.625 33.7333 108.639 33.7067 108.639 33.68C108.665 33.6533 108.692 33.6267 108.719 33.6C108.772 33.4933 108.799 33.44 108.799 33.44C108.799 33.4133 108.812 33.4 108.839 33.4C108.865 33.3733 108.879 33.36 108.879 33.36C108.879 33.3333 108.905 33.2933 108.959 33.24C109.012 33.1867 109.039 33.1467 109.039 33.12C109.092 33.1733 109.132 33.2 109.159 33.2C109.185 33.2 109.225 33.2533 109.279 33.36C109.332 33.52 109.425 33.56 109.559 33.48C109.692 33.4 109.732 33.4267 109.679 33.56C109.652 33.64 109.585 33.7733 109.479 33.96C109.372 34.1467 109.252 34.36 109.119 34.6C109.012 34.84 108.905 35.0933 108.799 35.36C108.719 35.6267 108.665 35.8667 108.639 36.08C108.612 36.2933 108.612 36.3867 108.639 36.36C108.665 36.3333 108.705 36.2667 108.759 36.16C108.812 36.0267 108.865 35.88 108.919 35.72C108.972 35.5333 109.025 35.4 109.079 35.32C109.105 35.24 109.159 35.0933 109.239 34.88C109.345 34.64 109.452 34.4 109.559 34.16C109.692 33.92 109.825 33.7067 109.959 33.52C110.092 33.3067 110.212 33.1733 110.319 33.12C110.532 33.04 110.665 33.0533 110.719 33.16C110.799 33.2667 110.799 33.4133 110.719 33.6C110.639 33.7867 110.585 33.9733 110.559 34.16C110.559 34.32 110.532 34.4667 110.479 34.6C110.452 34.68 110.345 34.9067 110.159 35.28C109.999 35.6267 109.825 36.0133 109.639 36.44C109.452 36.8667 109.292 37.28 109.159 37.68C109.052 38.0533 109.039 38.2933 109.119 38.4C109.172 38.4 109.252 38.3467 109.359 38.24C109.572 38.08 109.825 37.8 110.119 37.4C110.279 37.1867 110.545 36.8267 110.919 36.32C111.319 35.8133 111.719 35.2933 112.119 34.76C112.599 34.1467 113.105 33.4933 113.639 32.8C113.665 32.7467 113.692 32.7067 113.719 32.68C113.799 32.6 113.852 32.6 113.879 32.68C113.905 32.8133 113.932 32.84 113.959 32.76C113.985 32.68 113.999 32.68 113.999 32.76C113.999 32.84 114.025 32.8533 114.079 32.8C114.159 32.7467 114.212 32.7467 114.239 32.8ZM102.599 33.12C102.385 33.44 102.212 33.72 102.079 33.96C102.025 34.0933 101.999 34.16 101.999 34.16C101.999 34.16 101.985 34.1867 101.959 34.24C101.932 34.2933 101.932 34.2933 101.959 34.24C102.012 34.16 102.092 34.04 102.199 33.88C102.252 33.72 102.292 33.64 102.319 33.64C102.319 33.5867 102.359 33.52 102.439 33.44C102.545 33.2267 102.599 33.12 102.599 33.12L102.639 33.08H102.599V33.12ZM100.519 37.12C100.572 37.0133 100.625 36.88 100.679 36.72C100.705 36.56 100.745 36.3867 100.799 36.2C100.852 36.0133 100.919 35.84 100.999 35.68C101.052 35.4933 101.105 35.3333 101.159 35.2C101.212 35.0667 101.265 34.9467 101.319 34.84C101.372 34.7067 101.425 34.5733 101.479 34.44C101.532 34.3333 101.572 34.24 101.599 34.16C101.652 34.0533 101.692 33.9733 101.719 33.92C101.799 33.7867 101.839 33.7067 101.839 33.68C101.865 33.6533 101.905 33.6 101.959 33.52C102.012 33.4133 102.052 33.32 102.079 33.24L102.119 33.2H102.079V33.24C102.079 33.24 102.065 33.2533 102.039 33.28C102.012 33.3067 101.999 33.3333 101.999 33.36C101.999 33.3867 101.985 33.4 101.959 33.4C101.825 33.64 101.732 33.8267 101.679 33.96C101.652 34.0133 101.625 34.0533 101.599 34.08C101.572 34.1067 101.545 34.1467 101.519 34.2C101.492 34.2533 101.465 34.3067 101.439 34.36C101.412 34.3867 101.399 34.4267 101.399 34.48C101.345 34.5333 101.292 34.64 101.239 34.8C101.185 34.9333 101.132 35.0667 101.079 35.2C101.025 35.3333 100.985 35.44 100.959 35.52C100.932 35.5733 100.892 35.6667 100.839 35.8C100.812 35.8533 100.799 35.9067 100.799 35.96C100.799 35.9867 100.785 36.0267 100.759 36.08C100.705 36.1867 100.665 36.2933 100.639 36.4C100.639 36.4533 100.639 36.4933 100.639 36.52C100.612 36.52 100.599 36.5467 100.599 36.6C100.599 36.6533 100.585 36.6933 100.559 36.72C100.559 36.8 100.545 36.88 100.519 36.96C100.519 37.04 100.492 37.16 100.439 37.32C100.439 37.4 100.425 37.4667 100.399 37.52V37.72C100.345 37.88 100.319 38.0133 100.319 38.12C100.319 38.1733 100.319 38.2133 100.319 38.24C100.292 38.2667 100.279 38.3067 100.279 38.36V38.56C100.252 38.64 100.239 38.76 100.239 38.92V39.28V39.36C100.265 39.36 100.265 39.3467 100.239 39.32V39.24C100.239 39.16 100.252 39.0933 100.279 39.04V38.76C100.279 38.6533 100.292 38.5733 100.319 38.52V38.4C100.319 38.2667 100.332 38.1467 100.359 38.04C100.359 37.9867 100.372 37.9467 100.399 37.92C100.399 37.8933 100.399 37.8533 100.399 37.8C100.399 37.72 100.412 37.6533 100.439 37.6C100.439 37.52 100.452 37.4533 100.479 37.4C100.479 37.3467 100.492 37.3067 100.519 37.28C100.519 37.2267 100.519 37.1733 100.519 37.12ZM100.639 39.36V39.32C100.639 39.2933 100.639 39.28 100.639 39.28C100.612 39.2533 100.599 39.2267 100.599 39.2V39.12V39.2V39.32V39.52V39.56V39.72H100.639H100.599V39.68V39.56C100.625 39.5867 100.639 39.5733 100.639 39.52V39.36ZM100.759 37.88C100.785 37.8267 100.799 37.7733 100.799 37.72C100.799 37.6933 100.785 37.68 100.759 37.68V37.72C100.732 37.7467 100.719 37.8 100.719 37.88C100.719 37.96 100.705 38.0267 100.679 38.08V38.12V38.28C100.652 38.3333 100.639 38.3867 100.639 38.44V38.6C100.665 38.6 100.679 38.56 100.679 38.48V38.32C100.705 38.2933 100.719 38.2667 100.719 38.24V38.12C100.745 38.0933 100.759 38.0133 100.759 37.88ZM100.999 36.88C100.999 36.8533 100.985 36.8533 100.959 36.88L100.919 36.92C100.892 36.9733 100.879 37.04 100.879 37.12C100.879 37.1733 100.852 37.2533 100.799 37.36V37.52C100.825 37.5467 100.852 37.5067 100.879 37.4C100.879 37.2933 100.892 37.1867 100.919 37.08C100.945 37 100.959 36.96 100.959 36.96C100.959 36.96 100.972 36.9333 100.999 36.88ZM101.599 35.16C101.652 35.0533 101.679 34.96 101.679 34.88C101.705 34.8 101.745 34.7333 101.799 34.68C101.825 34.6267 101.839 34.5733 101.839 34.52C101.865 34.4667 101.879 34.4267 101.879 34.4C101.852 34.4 101.839 34.4133 101.839 34.44C101.785 34.4933 101.759 34.5333 101.759 34.56C101.759 34.5867 101.745 34.6267 101.719 34.68C101.719 34.7067 101.705 34.7333 101.679 34.76C101.652 34.7867 101.625 34.8267 101.599 34.88C101.599 34.9067 101.572 35 101.519 35.16C101.492 35.2133 101.479 35.2533 101.479 35.28C101.452 35.28 101.425 35.3067 101.399 35.36L101.319 35.6C101.292 35.68 101.279 35.76 101.279 35.84C101.225 35.9467 101.199 36.04 101.199 36.12C101.172 36.1733 101.159 36.2267 101.159 36.28C101.132 36.3067 101.105 36.3467 101.079 36.4C101.025 36.56 100.999 36.6533 100.999 36.68C100.999 36.7333 101.025 36.68 101.079 36.52C101.132 36.4133 101.172 36.32 101.199 36.24C101.225 36.1867 101.239 36.1467 101.239 36.12C101.239 36.0667 101.265 36 101.319 35.92C101.319 35.84 101.359 35.72 101.439 35.56C101.439 35.48 101.465 35.4133 101.519 35.36C101.519 35.3333 101.545 35.2667 101.599 35.16ZM102.439 36.72C102.492 36.5333 102.545 36.36 102.599 36.2C102.679 36.0133 102.745 35.8533 102.799 35.72C102.932 35.4267 103.039 35.1733 103.119 34.96C103.225 34.72 103.319 34.5333 103.399 34.4C103.479 34.2933 103.519 34.2133 103.519 34.16C103.545 34.1067 103.559 34.08 103.559 34.08C103.559 34.0533 103.572 34.0133 103.599 33.96C103.652 33.88 103.679 33.8133 103.679 33.76H103.719H103.759C103.759 33.7333 103.772 33.72 103.799 33.72L103.759 33.68C103.759 33.6533 103.745 33.64 103.719 33.64C103.719 33.64 103.705 33.6267 103.679 33.6H103.639L103.599 33.68L103.519 33.76C103.439 33.8667 103.372 33.9867 103.319 34.12C103.292 34.2267 103.252 34.3067 103.199 34.36C103.172 34.4133 103.119 34.5067 103.039 34.64C102.985 34.7467 102.932 34.8267 102.879 34.88C102.825 34.9333 102.772 35.04 102.719 35.2C102.692 35.36 102.652 35.5067 102.599 35.64C102.545 35.7733 102.492 35.88 102.439 35.96C102.412 36.0133 102.372 36.1067 102.319 36.24C102.292 36.2933 102.265 36.3467 102.239 36.4C102.239 36.4533 102.225 36.5067 102.199 36.56C102.172 36.6133 102.159 36.6667 102.159 36.72C102.159 36.7467 102.145 36.8 102.119 36.88C102.065 37.04 102.039 37.1467 102.039 37.2C102.039 37.2533 102.039 37.3467 102.039 37.48V37.64C102.039 37.6933 102.025 37.7333 101.999 37.76C101.999 37.76 101.999 37.7867 101.999 37.84C101.999 37.8933 101.985 37.96 101.959 38.04C101.959 38.12 101.959 38.1867 101.959 38.24V38.44C101.932 38.4933 101.919 38.56 101.919 38.64C101.892 38.6933 101.879 38.7733 101.879 38.88C101.879 38.9067 101.865 38.9333 101.839 38.96V39.04V39.24V39.4C101.839 39.4533 101.839 39.5067 101.839 39.56C101.865 39.5867 101.879 39.6267 101.879 39.68V39.72V39.8H101.919H101.959H101.999C101.999 39.8 101.985 39.7867 101.959 39.76H101.999L101.959 39.72V39.52C101.959 39.4133 101.972 39.32 101.999 39.24C101.999 39.0533 102.012 38.9333 102.039 38.88V38.76V38.68V38.56C102.065 38.4 102.079 38.2667 102.079 38.16C102.105 38.0533 102.145 37.8933 102.199 37.68C102.225 37.5733 102.252 37.44 102.279 37.28C102.332 37.12 102.385 36.9333 102.439 36.72ZM107.359 35.6C107.492 35.2 107.612 34.8933 107.719 34.68C107.932 34.1467 108.119 33.7867 108.279 33.6C108.332 33.4667 108.359 33.3867 108.359 33.36C108.385 33.3333 108.425 33.2933 108.479 33.24C108.559 33.1333 108.612 33.0533 108.639 33L108.679 32.96H108.639V33H108.599C108.572 33.0267 108.559 33.0533 108.559 33.08C108.559 33.1067 108.545 33.12 108.519 33.12C108.465 33.2 108.412 33.2933 108.359 33.4C108.305 33.48 108.252 33.5467 108.199 33.6C108.172 33.6533 108.132 33.7333 108.079 33.84C108.025 33.92 107.972 33.9867 107.919 34.04C107.892 34.0933 107.852 34.1867 107.799 34.32C107.745 34.4267 107.692 34.5467 107.639 34.68C107.585 34.8133 107.545 34.9067 107.519 34.96C107.519 35.0133 107.492 35.0933 107.439 35.2C107.412 35.28 107.372 35.3733 107.319 35.48C107.319 35.5067 107.292 35.6 107.239 35.76C107.239 35.84 107.225 35.8933 107.199 35.92V36.04C107.172 36.0667 107.159 36.1333 107.159 36.24C107.132 36.32 107.119 36.4267 107.119 36.56C107.092 36.6133 107.079 36.68 107.079 36.76C107.079 36.84 107.065 36.8933 107.039 36.92C107.039 37.16 107.012 37.4133 106.959 37.68V38C106.959 38.1333 106.972 38.2267 106.999 38.28C106.945 38.3333 106.945 38.36 106.999 38.36V38.32V38.24V37.84C106.999 37.76 106.999 37.7067 106.999 37.68C107.025 37.6267 107.039 37.5733 107.039 37.52V37.4V37.2C107.065 37.12 107.079 37 107.079 36.84C107.105 36.7867 107.119 36.72 107.119 36.64C107.119 36.5867 107.119 36.5467 107.119 36.52C107.145 36.4933 107.159 36.4533 107.159 36.4L107.359 35.6ZM107.359 38.48C107.359 38.4533 107.359 38.44 107.359 38.44C107.385 38.4133 107.399 38.3867 107.399 38.36C107.399 38.3333 107.385 38.32 107.359 38.32V38.2V38.12C107.332 38.12 107.319 38.1467 107.319 38.2V38.28C107.319 38.3867 107.332 38.4533 107.359 38.48V38.52V38.64V38.68V38.64V38.6V38.52V38.48ZM107.439 37.08C107.465 37.0267 107.479 36.9733 107.479 36.92C107.479 36.8933 107.465 36.88 107.439 36.88C107.412 36.88 107.399 36.8933 107.399 36.92V37.24L107.359 37.28V37.4V37.56V37.68L107.399 37.6V37.44V37.36C107.425 37.3333 107.439 37.3067 107.439 37.28V37.08ZM107.599 36.2C107.599 36.1733 107.585 36.16 107.559 36.16V36.2C107.532 36.2533 107.519 36.32 107.519 36.4C107.519 36.4533 107.505 36.4933 107.479 36.52C107.479 36.5467 107.479 36.5867 107.479 36.64C107.452 36.6933 107.439 36.72 107.439 36.72C107.465 36.72 107.479 36.7333 107.479 36.76C107.479 36.7333 107.492 36.6933 107.519 36.64C107.519 36.5333 107.532 36.44 107.559 36.36C107.585 36.3333 107.599 36.2933 107.599 36.24V36.2ZM108.399 34C108.372 34 108.359 34.0133 108.359 34.04C108.305 34.1467 108.279 34.2133 108.279 34.24C108.199 34.32 108.159 34.3867 108.159 34.44C108.105 34.4933 108.079 34.5733 108.079 34.68C108.052 34.7333 108.025 34.7733 107.999 34.8C107.999 34.8 107.985 34.8267 107.959 34.88C107.932 34.9333 107.905 35 107.879 35.08C107.852 35.1333 107.839 35.2 107.839 35.28C107.812 35.3067 107.799 35.3467 107.799 35.4C107.799 35.4267 107.785 35.4667 107.759 35.52C107.759 35.5733 107.745 35.6267 107.719 35.68C107.692 35.7067 107.679 35.7467 107.679 35.8C107.625 35.8533 107.599 35.92 107.599 36C107.599 36.1067 107.625 36.0533 107.679 35.84C107.732 35.7867 107.745 35.76 107.719 35.76C107.719 35.7333 107.732 35.6933 107.759 35.64C107.785 35.5867 107.799 35.5467 107.799 35.52C107.825 35.4667 107.852 35.4 107.879 35.32V35.28C107.879 35.2533 107.879 35.24 107.879 35.24C107.905 35.24 107.919 35.2267 107.919 35.2C107.919 35.1467 107.945 35.0933 107.999 35.04L108.119 34.68C108.172 34.6 108.212 34.5333 108.239 34.48C108.265 34.4 108.292 34.3333 108.319 34.28C108.372 34.2267 108.385 34.2 108.359 34.2C108.359 34.1733 108.372 34.1467 108.399 34.12C108.399 34.0933 108.412 34.0533 108.439 34H108.399ZM116.277 41.96C114.997 42.2267 114.023 42.2 113.357 41.88C112.663 41.56 112.183 41.1733 111.917 40.72C111.597 40.1867 111.437 39.52 111.437 38.72V38.56C111.49 37.5467 111.703 36.5467 112.077 35.56C112.45 34.5733 113.077 33.5333 113.957 32.44C114.49 31.7733 115.103 31.2 115.797 30.72C116.517 30.24 117.223 29.8667 117.917 29.6C118.61 29.3333 119.263 29.1733 119.877 29.12C120.49 29.0667 120.983 29.1333 121.357 29.32C121.65 29.3733 121.97 29.4933 122.317 29.68C122.663 29.8667 122.97 30.28 123.237 30.92C123.343 31.16 123.383 31.4 123.357 31.64C123.357 31.8533 123.33 32.0667 123.277 32.28L123.117 32.44C122.877 32.5467 122.757 32.5467 122.757 32.44C122.757 32.36 122.717 32.3333 122.637 32.36C122.557 32.3867 122.517 32.3333 122.517 32.2L122.237 32.24L122.197 32.12C122.25 31.9067 122.277 31.7733 122.277 31.72C122.277 31.5067 122.237 31.36 122.157 31.28C121.917 30.96 121.583 30.8933 121.157 31.08C121.05 31.1067 120.903 31.1733 120.717 31.28C120.53 31.3867 120.303 31.5067 120.037 31.64H120.077C119.437 32.0667 118.81 32.56 118.197 33.12C117.663 33.6267 117.103 34.24 116.517 34.96C115.957 35.68 115.463 36.5333 115.037 37.52C114.77 38.1333 114.557 38.76 114.397 39.4C114.263 40.0133 114.33 40.48 114.597 40.8C114.73 40.96 114.957 41 115.277 40.92C115.73 40.84 116.303 40.6 116.997 40.2C117.717 39.7733 118.463 39.2133 119.237 38.52C120.037 37.8 120.823 36.96 121.597 36C122.37 35.0133 123.05 33.92 123.637 32.72C123.69 32.64 123.717 32.56 123.717 32.48C123.743 32.4 123.783 32.32 123.837 32.24L123.917 31.84C123.943 31.6533 123.997 31.52 124.077 31.44C124.103 31.4133 124.17 31.44 124.277 31.52C124.383 31.5733 124.503 31.64 124.637 31.72C124.77 31.7733 124.89 31.8133 124.997 31.84C125.103 31.84 125.183 31.7867 125.237 31.68C125.343 31.4133 125.49 31.2533 125.677 31.2C125.89 31.12 126.09 31.1067 126.277 31.16C126.49 31.1867 126.663 31.2533 126.797 31.36C126.957 31.4667 127.037 31.56 127.037 31.64C127.037 31.6933 126.93 32.1867 126.717 33.12C126.53 34.0267 126.21 35.1867 125.757 36.6C126.69 36.04 127.557 35.5333 128.357 35.08C129.157 34.6 129.85 34.1867 130.437 33.84C131.13 33.44 131.757 33.08 132.317 32.76C132.37 32.7333 132.437 32.7067 132.517 32.68C132.677 32.6267 132.757 32.64 132.757 32.72C132.757 32.7733 132.783 32.7867 132.837 32.76C132.917 32.7333 132.983 32.7067 133.037 32.68C133.117 32.6533 133.183 32.64 133.237 32.64C133.317 32.6133 133.357 32.6267 133.357 32.68C133.357 32.7333 133.383 32.76 133.437 32.76C133.517 32.76 133.583 32.76 133.637 32.76C133.717 32.7333 133.77 32.72 133.797 32.72C133.85 32.72 133.863 32.76 133.837 32.84C133.81 32.8933 133.543 33.08 133.037 33.4C132.557 33.72 131.917 34.1333 131.117 34.64C130.317 35.1467 129.397 35.72 128.357 36.36C127.343 37 126.29 37.68 125.197 38.4C124.877 39.28 124.517 40.1867 124.117 41.12C123.743 42.0533 123.317 42.9867 122.837 43.92C122.357 44.8533 121.823 45.76 121.237 46.64C120.677 47.5467 120.063 48.3867 119.397 49.16C118.41 50.3333 117.49 51.2533 116.637 51.92C115.783 52.5867 115.037 53.08 114.397 53.4C113.757 53.72 113.25 53.9067 112.877 53.96C112.477 54.04 112.25 54.08 112.197 54.08C112.063 54.08 111.97 54.04 111.917 53.96C111.863 53.9067 111.81 53.8533 111.757 53.8C111.73 53.7467 111.663 53.72 111.557 53.72C111.503 53.72 111.437 53.7333 111.357 53.76C111.143 53.76 110.957 53.6933 110.797 53.56C110.61 53.4533 110.477 53.3733 110.397 53.32H110.357C109.77 52.84 109.45 52.2267 109.397 51.48C109.397 50.7333 109.717 49.8933 110.357 48.96C110.997 48.0267 111.837 47.0533 112.877 46.04C113.917 45.0267 115.103 44 116.437 42.96C117.797 41.92 119.183 40.92 120.597 39.96C120.677 39.7467 120.757 39.56 120.837 39.4C120.943 39.2133 121.037 39.0133 121.117 38.8C120.45 39.5467 119.703 40.2133 118.877 40.8C118.077 41.3867 117.21 41.7733 116.277 41.96ZM112.117 51.8C112.623 51.64 113.17 51.28 113.757 50.72C114.37 50.16 114.983 49.44 115.597 48.56C116.237 47.7067 116.877 46.7333 117.517 45.64C118.183 44.5733 118.823 43.44 119.437 42.24C118.85 42.6667 118.303 43.0667 117.797 43.44C117.29 43.84 116.837 44.2 116.437 44.52C115.103 45.6933 114.01 46.7867 113.157 47.8C112.783 48.2267 112.45 48.6533 112.157 49.08C111.863 49.5067 111.65 49.9067 111.517 50.28C111.383 50.6533 111.357 50.9733 111.437 51.24C111.517 51.5067 111.743 51.6933 112.117 51.8ZM118.157 47.24C118.157 47.2133 118.13 47.2267 118.077 47.28C118.077 47.3067 118.063 47.32 118.037 47.32C118.037 47.32 118.037 47.3333 118.037 47.36C117.983 47.4133 117.943 47.4667 117.917 47.52H117.877C117.85 47.5467 117.837 47.56 117.837 47.56C117.837 47.5867 117.823 47.6133 117.797 47.64C117.823 47.64 117.837 47.6267 117.837 47.6L117.917 47.52C117.89 47.5467 117.877 47.56 117.877 47.56C117.903 47.56 117.93 47.5467 117.957 47.52C117.957 47.52 117.983 47.4933 118.037 47.44V47.4C118.063 47.3733 118.077 47.3467 118.077 47.32C118.077 47.32 118.09 47.3067 118.117 47.28L118.157 47.24ZM118.357 46.4C118.357 46.4 118.37 46.3733 118.397 46.32C118.477 46.1867 118.543 46.08 118.597 46C118.677 45.92 118.77 45.8133 118.877 45.68C118.93 45.6 118.983 45.4933 119.037 45.36C119.117 45.2267 119.21 45.0933 119.317 44.96C119.397 44.8267 119.477 44.6933 119.557 44.56C119.663 44.4267 119.743 44.2933 119.797 44.16L120.157 43.56C120.237 43.3467 120.317 43.2 120.397 43.12C120.45 43.0133 120.477 42.9333 120.477 42.88C120.477 42.8533 120.503 42.8133 120.557 42.76L120.677 42.52V42.48H120.717H120.677C120.65 42.5067 120.637 42.5333 120.637 42.56C120.637 42.5867 120.623 42.6133 120.597 42.64C120.543 42.6933 120.503 42.7333 120.477 42.76C120.477 42.8133 120.463 42.8667 120.437 42.92C120.383 43.0267 120.343 43.0933 120.317 43.12C120.29 43.1733 120.25 43.24 120.197 43.32C120.143 43.4267 120.103 43.5067 120.077 43.56C120.023 43.6133 119.97 43.6933 119.917 43.8C119.863 43.9333 119.81 44.0533 119.757 44.16C119.703 44.2667 119.65 44.3467 119.597 44.4C119.543 44.4533 119.49 44.5333 119.437 44.64C119.383 44.7467 119.343 44.8133 119.317 44.84C119.29 44.8667 119.277 44.88 119.277 44.88C119.277 44.9067 119.263 44.9333 119.237 44.96C119.237 44.96 119.21 45.0133 119.157 45.12C119.077 45.2267 119.023 45.2933 118.997 45.32C118.997 45.3733 118.97 45.44 118.917 45.52C118.863 45.6 118.797 45.68 118.717 45.76C118.663 45.8667 118.61 45.9733 118.557 46.08C118.503 46.1333 118.463 46.1733 118.437 46.2C118.41 46.2533 118.37 46.3067 118.317 46.36C118.29 46.44 118.223 46.5333 118.117 46.64C118.063 46.72 117.997 46.8 117.917 46.88C117.863 46.9867 117.81 47.0667 117.757 47.12L117.717 47.16H117.757C117.757 47.16 117.77 47.1467 117.797 47.12C117.85 47.0667 117.89 47.0133 117.917 46.96C117.97 46.9067 118.01 46.8533 118.037 46.8C118.09 46.7467 118.13 46.6933 118.157 46.64C118.183 46.6133 118.21 46.5867 118.237 46.56C118.29 46.5067 118.317 46.48 118.317 46.48C118.317 46.4533 118.317 46.44 118.317 46.44C118.343 46.44 118.357 46.4267 118.357 46.4ZM120.557 43.56C120.557 43.5333 120.543 43.5333 120.517 43.56L120.477 43.6C120.423 43.6533 120.397 43.72 120.397 43.8C120.317 43.88 120.277 43.9333 120.277 43.96C120.25 43.9867 120.223 44.0133 120.197 44.04C120.197 44.0933 120.183 44.1467 120.157 44.2C120.13 44.2533 120.103 44.28 120.077 44.28C120.077 44.3067 120.063 44.3467 120.037 44.4C120.01 44.4533 119.983 44.48 119.957 44.48C119.957 44.5067 119.943 44.5467 119.917 44.6C119.863 44.6533 119.837 44.68 119.837 44.68C119.863 44.68 119.863 44.7067 119.837 44.76L119.717 45C119.663 45.1067 119.61 45.1867 119.557 45.24C119.53 45.2933 119.503 45.3333 119.477 45.36C119.45 45.3867 119.437 45.4267 119.437 45.48C119.41 45.5067 119.41 45.4933 119.437 45.44C119.463 45.4133 119.503 45.3733 119.557 45.32C119.61 45.2667 119.65 45.2 119.677 45.12C119.73 45.0667 119.757 45.0133 119.757 44.96C119.757 44.9333 119.783 44.8933 119.837 44.84C119.863 44.8133 119.93 44.72 120.037 44.56C120.037 44.5333 120.037 44.52 120.037 44.52C120.063 44.52 120.077 44.5067 120.077 44.48C120.077 44.4533 120.09 44.4267 120.117 44.4C120.143 44.3467 120.183 44.2933 120.237 44.24C120.29 44.1333 120.33 44.04 120.357 43.96C120.383 43.9067 120.41 43.8533 120.437 43.8C120.49 43.7467 120.503 43.72 120.477 43.72C120.477 43.72 120.49 43.6933 120.517 43.64C120.543 43.6133 120.557 43.5867 120.557 43.56ZM119.357 45.6L119.317 45.64C119.237 45.6933 119.197 45.7467 119.197 45.8C119.17 45.8267 119.143 45.8533 119.117 45.88C119.117 45.9067 119.09 45.9467 119.037 46C119.01 46.0533 118.997 46.0933 118.997 46.12C118.997 46.1733 119.023 46.1467 119.077 46.04C119.13 45.9867 119.157 45.9467 119.157 45.92C119.157 45.8933 119.183 45.8533 119.237 45.8C119.29 45.72 119.33 45.6667 119.357 45.64V45.6ZM118.597 46.72C118.597 46.6933 118.61 46.6667 118.637 46.64L118.717 46.56C118.743 46.5333 118.757 46.5067 118.757 46.48C118.757 46.48 118.783 46.4533 118.837 46.4L118.917 46.24H118.877C118.85 46.24 118.783 46.3333 118.677 46.52C118.65 46.5467 118.637 46.5733 118.637 46.6C118.61 46.6 118.597 46.6133 118.597 46.64C118.543 46.72 118.503 46.76 118.477 46.76C118.477 46.7867 118.463 46.8 118.437 46.8C118.437 46.8267 118.437 46.8533 118.437 46.88L118.517 46.8L118.597 46.72ZM121.877 43.56C121.823 43.6133 121.757 43.6933 121.677 43.8C121.623 43.9333 121.57 44.0267 121.517 44.08C121.463 44.1333 121.41 44.24 121.357 44.4C121.303 44.56 121.237 44.7067 121.157 44.84C121.103 44.9733 121.037 45.0667 120.957 45.12C120.903 45.1733 120.837 45.2667 120.757 45.4C120.73 45.4533 120.703 45.4933 120.677 45.52C120.65 45.5733 120.623 45.6267 120.597 45.68C120.597 45.7067 120.57 45.7467 120.517 45.8C120.49 45.8267 120.477 45.8533 120.477 45.88C120.477 45.9067 120.45 45.9333 120.397 45.96C120.317 46.12 120.263 46.2267 120.237 46.28C120.237 46.3333 120.21 46.4133 120.157 46.52C120.13 46.5467 120.117 46.5733 120.117 46.6C120.117 46.6267 120.103 46.6533 120.077 46.68C120.05 46.7333 120.023 46.76 119.997 46.76C119.997 46.7867 119.983 46.8267 119.957 46.88C119.93 46.96 119.863 47.08 119.757 47.24C119.703 47.2933 119.65 47.3467 119.597 47.4C119.57 47.48 119.53 47.5467 119.477 47.6L119.157 47.92C119.157 47.9467 119.117 48 119.037 48.08C119.01 48.1067 118.983 48.1333 118.957 48.16C118.957 48.1867 118.943 48.2133 118.917 48.24C118.89 48.2933 118.863 48.3333 118.837 48.36C118.81 48.3867 118.783 48.4267 118.757 48.48L118.717 48.52L118.677 48.6C118.677 48.6267 118.69 48.64 118.717 48.64C118.717 48.64 118.73 48.64 118.757 48.64C118.783 48.64 118.783 48.6267 118.757 48.6V48.56C118.81 48.5067 118.863 48.4533 118.917 48.4C118.97 48.3467 119.05 48.28 119.157 48.2C119.21 48.1467 119.237 48.1067 119.237 48.08C119.29 48.0267 119.317 48 119.317 48L119.437 47.88C119.49 47.7733 119.557 47.68 119.637 47.6C119.663 47.5467 119.69 47.5067 119.717 47.48C119.743 47.48 119.77 47.4533 119.797 47.4C119.823 47.3467 119.837 47.3067 119.837 47.28C119.863 47.28 119.89 47.2533 119.917 47.2C119.97 47.1467 120.01 47.08 120.037 47C120.09 46.9467 120.143 46.8667 120.197 46.76C120.223 46.76 120.237 46.7467 120.237 46.72C120.237 46.72 120.25 46.72 120.277 46.72C120.277 46.6933 120.277 46.6667 120.277 46.64C120.303 46.64 120.317 46.6267 120.317 46.6C120.343 46.5733 120.357 46.5467 120.357 46.52C120.383 46.4933 120.423 46.4533 120.477 46.4C120.53 46.32 120.57 46.24 120.597 46.16C120.65 46.08 120.703 46 120.757 45.92C120.81 45.8133 120.863 45.72 120.917 45.64C120.97 45.56 121.023 45.4667 121.077 45.36C121.103 45.3067 121.13 45.2667 121.157 45.24C121.183 45.2133 121.21 45.1733 121.237 45.12C121.263 45.0667 121.277 45.0267 121.277 45C121.303 45 121.33 44.9733 121.357 44.92C121.543 44.6533 121.677 44.4 121.757 44.16C121.863 43.92 121.97 43.7333 122.077 43.6C122.157 43.4667 122.183 43.3733 122.157 43.32C122.157 43.2933 122.183 43.2267 122.237 43.12C122.29 43.04 122.317 42.9733 122.317 42.92H122.357C122.357 42.8933 122.37 42.88 122.397 42.88V42.84C122.423 42.84 122.437 42.8267 122.437 42.8C122.437 42.8 122.423 42.8 122.397 42.8L122.317 42.72H122.237V42.76C122.237 42.8133 122.237 42.84 122.237 42.84L122.157 42.92C122.077 43.0533 122.01 43.1733 121.957 43.28C121.93 43.3867 121.903 43.48 121.877 43.56ZM121.197 42.32C121.17 42.32 121.157 42.3333 121.157 42.36C121.103 42.4933 121.023 42.6267 120.917 42.76C120.837 42.8933 120.77 43.0267 120.717 43.16L120.597 43.4C120.597 43.5067 120.677 43.4 120.837 43.08C120.917 42.92 120.957 42.84 120.957 42.84V42.8C120.957 42.8267 120.983 42.7867 121.037 42.68C121.117 42.52 121.157 42.4133 121.157 42.36H121.197V42.32ZM112.997 36.64C112.997 36.6667 112.983 36.7067 112.957 36.76C112.957 36.8133 112.943 36.8533 112.917 36.88V36.92L112.877 37C112.877 37.08 112.863 37.1333 112.837 37.16V37.2C112.837 37.2267 112.837 37.2667 112.837 37.32C112.81 37.3467 112.797 37.3733 112.797 37.4H112.757H112.797V37.36C112.823 37.3333 112.837 37.28 112.837 37.2C112.837 37.2267 112.85 37.24 112.877 37.24C112.877 37.2133 112.877 37.1733 112.877 37.12C112.877 37.12 112.903 37.0667 112.957 36.96V36.88C112.957 36.8267 112.97 36.7867 112.997 36.76V36.64ZM113.757 34.92L113.717 34.96C113.663 35.0133 113.637 35.08 113.637 35.16L113.557 35.24C113.557 35.2667 113.557 35.2933 113.557 35.32C113.53 35.32 113.517 35.3333 113.517 35.36C113.517 35.3867 113.503 35.4133 113.477 35.44C113.45 35.4933 113.437 35.5333 113.437 35.56C113.437 35.56 113.423 35.5867 113.397 35.64C113.343 35.7467 113.317 35.8133 113.317 35.84C113.29 35.8667 113.277 35.8933 113.277 35.92C113.277 35.9467 113.263 35.9733 113.237 36C113.237 36 113.25 36 113.277 36V35.96C113.277 35.9333 113.29 35.92 113.317 35.92C113.317 35.92 113.317 35.9067 113.317 35.88C113.37 35.8267 113.397 35.76 113.397 35.68C113.423 35.6533 113.437 35.64 113.437 35.64C113.437 35.6133 113.45 35.5867 113.477 35.56L113.517 35.48C113.543 35.4533 113.557 35.44 113.557 35.44C113.557 35.4133 113.57 35.3867 113.597 35.36C113.597 35.3067 113.61 35.28 113.637 35.28C113.637 35.2267 113.65 35.2 113.677 35.2C113.73 35.12 113.757 35.04 113.757 34.96V34.92ZM114.357 34C114.357 34.0267 114.343 34.04 114.317 34.04L114.197 34.16C114.17 34.1867 114.157 34.2133 114.157 34.24C114.157 34.24 114.143 34.2533 114.117 34.28C114.117 34.3067 114.09 34.3467 114.037 34.4C114.037 34.4533 114.01 34.5067 113.957 34.56C113.903 34.6667 113.877 34.7333 113.877 34.76C113.877 34.7867 113.917 34.7333 113.997 34.6C114.023 34.5733 114.037 34.5467 114.037 34.52C114.037 34.4933 114.05 34.4667 114.077 34.44C114.103 34.4133 114.143 34.3467 114.197 34.24L114.277 34.16C114.277 34.1333 114.29 34.12 114.317 34.12C114.317 34.0933 114.33 34.0533 114.357 34ZM114.477 33.8C114.45 33.8533 114.45 33.8533 114.477 33.8C114.53 33.7467 114.597 33.68 114.677 33.6C114.757 33.52 114.837 33.4267 114.917 33.32C114.97 33.2667 115.01 33.2133 115.037 33.16C115.117 33.08 115.17 33.0133 115.197 32.96C115.25 32.9333 115.303 32.8933 115.357 32.84C115.41 32.76 115.477 32.6933 115.557 32.64C115.61 32.5867 115.637 32.5467 115.637 32.52L115.757 32.4C115.81 32.3733 115.837 32.3467 115.837 32.32C115.863 32.2933 115.903 32.2667 115.957 32.24C115.983 32.2133 116.01 32.2 116.037 32.2C116.063 32.1733 116.09 32.1467 116.117 32.12C116.143 32.0667 116.17 32.04 116.197 32.04C116.223 32.0133 116.25 31.9867 116.277 31.96L116.397 31.84C116.45 31.84 116.477 31.8133 116.477 31.76C116.557 31.7067 116.623 31.6533 116.677 31.6C116.73 31.5733 116.77 31.5467 116.797 31.52C116.797 31.4933 116.783 31.48 116.757 31.48C116.73 31.48 116.703 31.4933 116.677 31.52C116.623 31.5733 116.57 31.6133 116.517 31.64C116.49 31.6667 116.463 31.7067 116.437 31.76C116.41 31.76 116.37 31.7867 116.317 31.84C116.237 31.92 116.197 31.9467 116.197 31.92L116.077 32.04C116.023 32.0667 115.983 32.0933 115.957 32.12C115.957 32.1467 115.93 32.1733 115.877 32.2C115.823 32.2533 115.783 32.2933 115.757 32.32C115.73 32.32 115.69 32.3467 115.637 32.4C115.583 32.4533 115.543 32.4933 115.517 32.52C115.49 32.5467 115.45 32.5867 115.397 32.64C115.343 32.6933 115.303 32.7333 115.277 32.76C115.277 32.7867 115.263 32.8267 115.237 32.88C115.183 32.9333 115.143 32.9867 115.117 33.04C115.09 33.0667 115.05 33.1067 114.997 33.16C114.943 33.2133 114.917 33.24 114.917 33.24C114.89 33.2667 114.877 33.2933 114.877 33.32C114.877 33.32 114.863 33.3333 114.837 33.36C114.757 33.44 114.717 33.4933 114.717 33.52C114.663 33.5733 114.623 33.6267 114.597 33.68C114.57 33.7067 114.53 33.7467 114.477 33.8ZM117.757 32.08C117.757 32.0533 117.743 32.04 117.717 32.04C117.717 32.0133 117.717 31.9867 117.717 31.96C117.69 31.96 117.663 31.9467 117.637 31.92C117.637 31.92 117.623 31.9467 117.597 32C117.57 32.0267 117.543 32.04 117.517 32.04C117.437 32.0933 117.357 32.16 117.277 32.24C117.223 32.2933 117.17 32.3467 117.117 32.4C117.09 32.4267 117.023 32.4667 116.917 32.52C116.863 32.5467 116.797 32.6 116.717 32.68C116.69 32.7067 116.663 32.7333 116.637 32.76C116.637 32.7867 116.61 32.8267 116.557 32.88C116.503 32.9333 116.463 32.9867 116.437 33.04L116.317 33.16C116.263 33.2133 116.237 33.2533 116.237 33.28C116.21 33.28 116.17 33.3067 116.117 33.36C116.09 33.3867 116.063 33.4133 116.037 33.44C116.01 33.44 115.97 33.4667 115.917 33.52C115.89 33.5733 115.863 33.6133 115.837 33.64C115.837 33.64 115.823 33.6667 115.797 33.72C115.717 33.8 115.663 33.8667 115.637 33.92C115.53 34.08 115.477 34.16 115.477 34.16V34.24C115.45 34.2667 115.437 34.3067 115.437 34.36C115.383 34.44 115.33 34.5333 115.277 34.64C115.25 34.72 115.21 34.8133 115.157 34.92C115.13 34.9467 115.117 34.9733 115.117 35C115.117 35 115.103 35.0133 115.077 35.04C115.05 35.0667 115.023 35.0933 114.997 35.12C114.997 35.1467 114.983 35.1733 114.957 35.2C114.93 35.2533 114.903 35.3067 114.877 35.36C114.85 35.3867 114.823 35.4267 114.797 35.48C114.797 35.5067 114.77 35.5467 114.717 35.6C114.717 35.6267 114.703 35.6533 114.677 35.68C114.677 35.68 114.677 35.7067 114.677 35.76C114.65 35.8133 114.637 35.88 114.637 35.96C114.61 35.96 114.597 35.9733 114.597 36C114.597 36 114.583 36.0133 114.557 36.04L114.597 36.08H114.637H114.677C114.65 36.0533 114.65 36.04 114.677 36.04V36C114.703 35.9733 114.717 35.9333 114.717 35.88C114.743 35.8 114.783 35.7333 114.837 35.68C114.89 35.6267 114.917 35.6 114.917 35.6C114.917 35.5733 114.917 35.56 114.917 35.56C114.943 35.56 114.957 35.5467 114.957 35.52C114.983 35.4933 114.997 35.4667 114.997 35.44C115.023 35.3867 115.037 35.3467 115.037 35.32C115.037 35.2933 115.063 35.2533 115.117 35.2C115.197 35.0933 115.25 34.9867 115.277 34.88C115.33 34.8267 115.37 34.7867 115.397 34.76C115.423 34.7067 115.463 34.64 115.517 34.56C115.517 34.5333 115.543 34.4933 115.597 34.44C115.597 34.44 115.623 34.3867 115.677 34.28C115.73 34.2267 115.81 34.12 115.917 33.96C115.997 33.88 116.05 33.8133 116.077 33.76C116.103 33.7333 116.117 33.7067 116.117 33.68C116.143 33.6533 116.183 33.6267 116.237 33.6C116.263 33.5467 116.303 33.4933 116.357 33.44C116.383 33.36 116.437 33.3067 116.517 33.28L116.637 33.16L116.757 33.04C116.81 32.96 116.877 32.8933 116.957 32.84C117.09 32.68 117.197 32.5733 117.277 32.52C117.33 32.4667 117.357 32.44 117.357 32.44C117.383 32.4133 117.41 32.3867 117.437 32.36C117.463 32.3333 117.477 32.32 117.477 32.32C117.477 32.2933 117.503 32.2667 117.557 32.24C117.637 32.16 117.677 32.12 117.677 32.12H117.757C117.757 32.12 117.757 32.1067 117.757 32.08ZM118.477 30.52C118.37 30.5733 118.263 30.6267 118.157 30.68C118.05 30.7067 117.943 30.7467 117.837 30.8C117.73 30.8533 117.623 30.9067 117.517 30.96C117.437 31.0133 117.357 31.0667 117.277 31.12C117.143 31.2267 117.063 31.28 117.037 31.28C117.037 31.28 117.01 31.3067 116.957 31.36C116.85 31.4667 117.023 31.3733 117.477 31.08C117.583 31.0267 117.65 30.9867 117.677 30.96C117.703 30.9333 117.73 30.9067 117.757 30.88C117.73 30.88 117.823 30.84 118.037 30.76C118.143 30.7067 118.223 30.6667 118.277 30.64C118.33 30.6133 118.383 30.5867 118.437 30.56L118.477 30.52H118.517H118.477ZM112.557 36.84H112.597V36.8C112.597 36.7733 112.61 36.7467 112.637 36.72C112.637 36.6933 112.663 36.6 112.717 36.44V36.36C112.743 36.36 112.757 36.3333 112.757 36.28C112.783 36.2533 112.797 36.2267 112.797 36.2C112.797 36.1733 112.81 36.1467 112.837 36.12C112.89 36.0133 112.917 35.96 112.917 35.96C112.917 35.9067 112.93 35.8667 112.957 35.84C112.983 35.7867 112.997 35.76 112.997 35.76C112.997 35.7333 113.01 35.6933 113.037 35.64C113.037 35.6133 113.05 35.6 113.077 35.6C113.077 35.5733 113.077 35.5333 113.077 35.48C113.103 35.4533 113.143 35.3867 113.197 35.28C113.303 35.0667 113.397 34.8933 113.477 34.76C113.557 34.6267 113.663 34.44 113.797 34.2C113.823 34.1467 113.837 34.12 113.837 34.12C113.863 34.0933 113.89 34.0533 113.917 34C113.943 33.9467 113.97 33.9067 113.997 33.88C114.023 33.8267 114.05 33.7733 114.077 33.72C114.183 33.6133 114.263 33.52 114.317 33.44C114.343 33.4133 114.357 33.4 114.357 33.4C114.357 33.3733 114.37 33.3467 114.397 33.32C114.423 33.2933 114.437 33.2667 114.437 33.24C114.463 33.2133 114.49 33.1867 114.517 33.16C114.677 32.9467 114.85 32.76 115.037 32.6C115.223 32.4133 115.383 32.2533 115.517 32.12C115.81 31.8533 116.077 31.6267 116.317 31.44C116.583 31.2267 116.797 31.0667 116.957 30.96C117.117 30.8533 117.21 30.7867 117.237 30.76C117.29 30.7333 117.37 30.6933 117.477 30.64C117.583 30.56 117.65 30.52 117.677 30.52C117.73 30.4667 117.783 30.4267 117.837 30.4H117.877V30.36L117.837 30.4C117.837 30.4 117.823 30.4133 117.797 30.44C117.77 30.4667 117.73 30.48 117.677 30.48C117.65 30.48 117.623 30.4933 117.597 30.52C117.463 30.6 117.33 30.68 117.197 30.76C117.063 30.84 116.957 30.9067 116.877 30.96C116.823 30.9867 116.77 31.0267 116.717 31.08C116.663 31.1067 116.61 31.1467 116.557 31.2C116.397 31.3067 116.29 31.3733 116.237 31.4C116.183 31.4533 116.13 31.4933 116.077 31.52C116.05 31.5733 116.023 31.6133 115.997 31.64C115.97 31.64 115.93 31.6667 115.877 31.72C115.823 31.7733 115.757 31.84 115.677 31.92C115.597 31.9733 115.517 32.04 115.437 32.12C115.437 32.12 115.41 32.1467 115.357 32.2L115.277 32.28C115.25 32.3067 115.223 32.3333 115.197 32.36C115.17 32.36 115.143 32.3733 115.117 32.4C115.063 32.4533 115.01 32.5067 114.957 32.56C114.93 32.6133 114.89 32.6667 114.837 32.72L114.557 33C114.53 33.0267 114.503 33.0533 114.477 33.08C114.477 33.1067 114.463 33.1333 114.437 33.16C114.41 33.1867 114.383 33.2133 114.357 33.24C114.357 33.2667 114.33 33.3067 114.277 33.36C114.223 33.44 114.183 33.5067 114.157 33.56C114.13 33.6133 114.09 33.6667 114.037 33.72C114.01 33.7733 113.983 33.8133 113.957 33.84C113.957 33.8667 113.93 33.9067 113.877 33.96C113.797 34.0933 113.717 34.24 113.637 34.4C113.53 34.56 113.437 34.7067 113.357 34.84L113.237 35.08C113.21 35.16 113.17 35.2533 113.117 35.36C113.09 35.3867 113.077 35.4133 113.077 35.44C113.077 35.44 113.063 35.4533 113.037 35.48C113.037 35.5067 113.037 35.5333 113.037 35.56C113.01 35.5867 112.997 35.6133 112.997 35.64C112.943 35.7467 112.903 35.8133 112.877 35.84C112.877 35.8933 112.85 35.9733 112.797 36.08C112.797 36.1333 112.77 36.2133 112.717 36.32C112.717 36.3733 112.717 36.4133 112.717 36.44C112.69 36.4667 112.677 36.4933 112.677 36.52C112.65 36.5733 112.637 36.6133 112.637 36.64C112.637 36.6667 112.623 36.6933 112.597 36.72V36.76L112.557 36.84ZM131.808 42.52C131.755 42.52 131.595 42.5067 131.328 42.48C131.035 42.4533 130.741 42.36 130.448 42.2C130.155 42.0667 129.888 41.8267 129.648 41.48C129.408 41.1333 129.301 40.64 129.328 40C129.328 39.36 129.515 38.5467 129.888 37.56C130.235 36.5467 130.848 35.3067 131.728 33.84C131.781 33.76 131.835 33.68 131.888 33.6C131.941 33.52 131.995 33.4267 132.048 33.32C132.181 33.1333 132.288 32.96 132.368 32.8C132.475 32.6133 132.581 32.4533 132.688 32.32C133.141 31.6267 133.568 30.9733 133.968 30.36C134.368 29.72 134.621 29.3333 134.728 29.2C134.781 29.1467 134.821 29.12 134.848 29.12C134.901 29.1467 134.955 29.16 135.008 29.16C135.088 29.16 135.155 29.1733 135.208 29.2C135.261 29.2533 135.355 29.28 135.488 29.28C135.621 29.2533 135.715 29.28 135.768 29.36C135.821 29.44 135.901 29.52 136.008 29.6C136.115 29.68 136.195 29.7467 136.248 29.8C136.301 29.8533 136.368 29.9333 136.448 30.04C136.555 30.12 136.608 30.1867 136.608 30.24C136.608 30.2667 136.475 30.5333 136.208 31.04C135.968 31.52 135.675 32.1333 135.328 32.88C134.981 33.6267 134.621 34.4533 134.248 35.36C133.875 36.24 133.555 37.08 133.288 37.88C133.048 38.68 132.901 39.3867 132.848 40C132.795 40.5867 132.928 40.96 133.248 41.12C133.488 41.2533 133.755 41.24 134.048 41.08C134.341 40.8933 134.648 40.6133 134.968 40.24C135.288 39.8667 135.621 39.4267 135.968 38.92C136.315 38.3867 136.648 37.84 136.968 37.28C137.715 35.9733 138.501 34.4267 139.328 32.64C139.381 32.6133 139.448 32.6 139.528 32.6C139.635 32.6 139.715 32.6267 139.768 32.68C139.821 32.7333 139.875 32.7467 139.928 32.72C140.008 32.6667 140.048 32.6667 140.048 32.72C140.075 32.7733 140.168 32.76 140.328 32.68C140.515 32.5733 140.581 32.5867 140.528 32.72C140.501 32.7467 140.381 33.04 140.168 33.6C139.955 34.1333 139.675 34.7867 139.328 35.56C138.981 36.3333 138.568 37.16 138.088 38.04C137.635 38.92 137.141 39.7333 136.608 40.48C136.075 41.2 135.528 41.7867 134.968 42.24C134.408 42.72 133.848 42.92 133.288 42.84L132.648 42.68C132.488 42.6267 132.328 42.5867 132.168 42.56C132.008 42.56 131.888 42.5467 131.808 42.52ZM134.208 33.24H134.248C134.248 33.24 134.261 33.24 134.288 33.24L134.248 33.2C134.275 33.1733 134.288 33.1467 134.288 33.12C134.315 33.0933 134.355 33.0533 134.408 33C134.461 32.92 134.488 32.8667 134.488 32.84C134.488 32.8133 134.515 32.7733 134.568 32.72L134.768 32.32C134.795 32.2667 134.808 32.24 134.808 32.24C134.835 32.2133 134.861 32.1733 134.888 32.12L135.008 31.88L135.128 31.64L135.248 31.4C135.275 31.3733 135.288 31.3467 135.288 31.32C135.315 31.2933 135.341 31.2667 135.368 31.24C135.395 31.1867 135.408 31.16 135.408 31.16C135.408 31.1333 135.421 31.0933 135.448 31.04C135.475 30.9333 135.515 30.8533 135.568 30.8C135.621 30.7467 135.635 30.7067 135.608 30.68C135.608 30.6533 135.621 30.6133 135.648 30.56C135.675 30.5333 135.688 30.5067 135.688 30.48H135.728H135.768C135.768 30.48 135.768 30.4667 135.768 30.44L135.728 30.4C135.701 30.4 135.688 30.4 135.688 30.4C135.688 30.3733 135.675 30.36 135.648 30.36L135.608 30.32L135.568 30.36C135.568 30.3867 135.581 30.4 135.608 30.4C135.581 30.4 135.568 30.4133 135.568 30.44C135.461 30.52 135.408 30.6133 135.408 30.72C135.381 30.7733 135.341 30.8133 135.288 30.84C135.261 30.8667 135.235 30.9067 135.208 30.96C135.208 30.96 135.181 31.0133 135.128 31.12C135.128 31.1467 135.101 31.2133 135.048 31.32C135.021 31.3733 134.995 31.4133 134.968 31.44C134.941 31.4667 134.901 31.5067 134.848 31.56C134.821 31.6133 134.795 31.6667 134.768 31.72C134.768 31.7467 134.755 31.7867 134.728 31.84C134.675 31.92 134.648 31.9733 134.648 32C134.675 32.0267 134.675 32.0667 134.648 32.12C134.648 32.1733 134.635 32.24 134.608 32.32C134.581 32.4 134.555 32.4667 134.528 32.52C134.501 32.5733 134.461 32.6267 134.408 32.68C134.381 32.7333 134.355 32.7867 134.328 32.84C134.301 32.8933 134.275 32.9467 134.248 33C134.221 33.0533 134.208 33.1067 134.208 33.16H134.168V33.2L134.208 33.24ZM131.608 42.36V42.32C131.581 42.32 131.568 42.3067 131.568 42.28C131.541 42.28 131.515 42.28 131.488 42.28C131.515 42.28 131.528 42.2667 131.528 42.24C131.501 42.24 131.475 42.24 131.448 42.24C131.421 42.2133 131.408 42.1867 131.408 42.16C131.408 42.16 131.395 42.1467 131.368 42.12H131.328L131.248 42.04C131.221 42.0133 131.195 42 131.168 42C131.168 42 131.181 42.0267 131.208 42.08C131.235 42.08 131.261 42.0933 131.288 42.12L131.368 42.2C131.395 42.2 131.408 42.2133 131.408 42.24C131.435 42.24 131.448 42.2533 131.448 42.28H131.488C131.541 42.3333 131.581 42.36 131.608 42.36H131.648H131.608ZM130.608 40.44C130.608 40.52 130.621 40.5733 130.648 40.6C130.648 40.6 130.648 40.56 130.648 40.48V40.12V39.92C130.648 39.8933 130.635 39.8933 130.608 39.92V39.96V40.08V40.2V40.44ZM130.648 40.8C130.648 40.8533 130.675 40.96 130.728 41.12V41.16C130.728 41.2133 130.741 41.2533 130.768 41.28C130.768 41.28 130.768 41.2933 130.768 41.32C130.821 41.4267 130.848 41.48 130.848 41.48C130.848 41.5067 130.861 41.5333 130.888 41.56C130.888 41.56 130.888 41.5733 130.888 41.6H130.928C130.901 41.6 130.888 41.5867 130.888 41.56V41.48C130.861 41.48 130.848 41.4533 130.848 41.4C130.848 41.3733 130.835 41.36 130.808 41.36V41.28C130.781 41.2533 130.768 41.2267 130.768 41.2V41.16C130.768 41.1333 130.768 41.1067 130.768 41.08C130.741 41.0533 130.728 41.0133 130.728 40.96C130.728 40.9067 130.715 40.8667 130.688 40.84V40.76H130.648V40.8ZM130.888 38.52C130.915 38.4667 130.941 38.4 130.968 38.32C130.968 38.24 130.981 38.1733 131.008 38.12C131.061 37.9867 131.101 37.88 131.128 37.8C131.128 37.72 131.155 37.6533 131.208 37.6C131.235 37.5467 131.248 37.52 131.248 37.52C131.221 37.4933 131.221 37.4533 131.248 37.4V37.28C131.248 37.3067 131.235 37.32 131.208 37.32C131.155 37.48 131.128 37.5733 131.128 37.6C131.075 37.6533 131.048 37.72 131.048 37.8C130.995 37.8533 130.968 37.96 130.968 38.12C130.941 38.1733 130.928 38.2133 130.928 38.24C130.901 38.2667 130.875 38.3067 130.848 38.36C130.848 38.44 130.835 38.52 130.808 38.6C130.781 38.68 130.768 38.76 130.768 38.84C130.768 38.9733 130.755 39.0667 130.728 39.12C130.728 39.1733 130.728 39.2267 130.728 39.28C130.701 39.3333 130.688 39.3867 130.688 39.44C130.661 39.4667 130.648 39.52 130.648 39.6V39.72C130.648 39.7733 130.648 39.7733 130.648 39.72C130.648 39.6667 130.661 39.6 130.688 39.52C130.715 39.4933 130.728 39.4533 130.728 39.4C130.728 39.3467 130.741 39.3067 130.768 39.28C130.768 39.1467 130.781 39.0267 130.808 38.92C130.861 38.8133 130.888 38.68 130.888 38.52ZM131.888 35.88C131.781 36.04 131.688 36.2 131.608 36.36C131.528 36.52 131.461 36.6667 131.408 36.8C131.355 36.9333 131.328 37.0133 131.328 37.04C131.328 37.04 131.328 37.0667 131.328 37.12C131.275 37.2533 131.341 37.12 131.528 36.72C131.581 36.5867 131.608 36.4933 131.608 36.44C131.635 36.4133 131.675 36.3467 131.728 36.24C131.835 36.0267 131.888 35.92 131.888 35.92V35.88V35.84V35.88ZM130.208 40.12C130.208 40.2267 130.221 40.36 130.248 40.52C130.248 40.6533 130.261 40.7867 130.288 40.92C130.315 40.9733 130.328 41.04 130.328 41.12C130.328 41.2 130.355 41.28 130.408 41.36C130.461 41.5733 130.515 41.7067 130.568 41.76C130.595 41.84 130.661 41.96 130.768 42.12L131.048 42.4L131.088 42.44V42.4C131.088 42.4 131.061 42.3867 131.008 42.36C130.955 42.3067 130.848 42.1733 130.688 41.96C130.688 41.9067 130.675 41.88 130.648 41.88V41.84C130.621 41.8133 130.608 41.8 130.608 41.8C130.608 41.7733 130.595 41.7467 130.568 41.72C130.568 41.6933 130.555 41.6667 130.528 41.64V41.6C130.501 41.5733 130.488 41.5467 130.488 41.52C130.488 41.4933 130.475 41.4667 130.448 41.44C130.448 41.4133 130.448 41.3867 130.448 41.36C130.421 41.3333 130.408 41.2933 130.408 41.24C130.355 41.16 130.328 41.0933 130.328 41.04C130.328 40.96 130.315 40.88 130.288 40.8V40.28V39.84C130.288 39.7333 130.315 39.5467 130.368 39.28C130.395 39.0667 130.435 38.8667 130.488 38.68C130.515 38.4933 130.555 38.3333 130.608 38.2C130.688 37.9067 130.768 37.64 130.848 37.4C130.928 37.16 130.995 36.9733 131.048 36.84C131.101 36.7067 131.141 36.6267 131.168 36.6C131.168 36.5467 131.195 36.4667 131.248 36.36C131.301 36.2533 131.341 36.16 131.368 36.08V36.04V36.08C131.341 36.08 131.328 36.0933 131.328 36.12C131.301 36.1467 131.288 36.1733 131.288 36.2C131.288 36.2267 131.275 36.24 131.248 36.24C131.141 36.4533 131.061 36.6667 131.008 36.88C130.901 37.04 130.821 37.2267 130.768 37.44C130.741 37.4933 130.715 37.6 130.688 37.76C130.635 37.92 130.581 38.0667 130.528 38.2C130.475 38.3333 130.448 38.44 130.448 38.52C130.421 38.6 130.395 38.7067 130.368 38.84C130.341 38.8933 130.328 38.9467 130.328 39C130.328 39.0533 130.315 39.1067 130.288 39.16C130.288 39.2933 130.275 39.4133 130.248 39.52C130.248 39.68 130.235 39.7867 130.208 39.84V40.12ZM136.208 28.52C136.021 28.52 135.861 28.4933 135.728 28.44C135.435 28.3333 135.288 28.1867 135.288 28C135.288 27.76 135.275 27.5333 135.248 27.32C135.248 27.1067 135.248 26.9467 135.248 26.84C135.248 26.8133 135.301 26.6667 135.408 26.4C135.515 26.1067 135.661 25.8 135.848 25.48C136.035 25.16 136.235 24.8667 136.448 24.6C136.661 24.3067 136.875 24.1333 137.088 24.08C137.515 24 137.755 23.96 137.808 23.96C137.861 23.96 137.968 23.96 138.128 23.96C138.288 23.9867 138.461 23.9867 138.648 23.96C138.835 23.9067 138.995 23.9333 139.128 24.04C139.288 24.12 139.475 24.1733 139.688 24.2C139.901 24.2267 139.915 24.3867 139.728 24.68C139.648 24.84 139.501 25.0667 139.288 25.36C139.101 25.6533 138.901 25.9733 138.688 26.32C138.475 26.64 138.275 26.9467 138.088 27.24C137.901 27.5333 137.768 27.7467 137.688 27.88C137.555 28.1467 137.341 28.3867 137.048 28.6C136.755 28.7867 136.475 28.76 136.208 28.52ZM136.048 27V26.96C136.075 26.9333 136.075 26.92 136.048 26.92V26.96H136.008V27.04V27.08L135.968 27.12H136.008V27.08L136.048 27.04L136.088 27H136.048ZM136.288 26.52C136.315 26.4933 136.328 26.4667 136.328 26.44C136.328 26.4133 136.315 26.4133 136.288 26.44C136.261 26.44 136.235 26.48 136.208 26.56C136.208 26.5867 136.195 26.6133 136.168 26.64V26.68V26.72C136.195 26.6933 136.208 26.6667 136.208 26.64L136.248 26.6C136.275 26.5733 136.288 26.5467 136.288 26.52ZM136.488 26.12H136.448C136.421 26.1467 136.408 26.1733 136.408 26.2C136.408 26.2267 136.395 26.2533 136.368 26.28C136.368 26.28 136.368 26.2933 136.368 26.32C136.341 26.3467 136.341 26.36 136.368 26.36C136.368 26.36 136.381 26.3467 136.408 26.32C136.408 26.2933 136.421 26.2533 136.448 26.2L136.488 26.16V26.12ZM137.088 25.16C137.088 25.2133 137.128 25.1733 137.208 25.04C137.261 24.9867 137.275 24.96 137.248 24.96C137.248 24.96 137.275 24.9333 137.328 24.88C137.381 24.8267 137.408 24.7867 137.408 24.76C137.355 24.8133 137.301 24.8667 137.248 24.92C137.221 24.9733 137.181 25.0267 137.128 25.08C137.101 25.1333 137.088 25.16 137.088 25.16ZM137.048 25.24C137.048 25.2133 137.035 25.2133 137.008 25.24C136.981 25.2667 136.968 25.2933 136.968 25.32C136.915 25.3733 136.888 25.4 136.888 25.4C136.861 25.4 136.848 25.4133 136.848 25.44V25.52C136.821 25.5467 136.795 25.56 136.768 25.56C136.741 25.5867 136.728 25.6267 136.728 25.68C136.701 25.7067 136.688 25.7333 136.688 25.76C136.688 25.7867 136.675 25.8133 136.648 25.84C136.648 25.84 136.648 25.8533 136.648 25.88C136.595 25.88 136.568 25.9067 136.568 25.96C136.541 25.9867 136.528 26.0267 136.528 26.08C136.528 26.0533 136.541 26.0267 136.568 26C136.621 25.9733 136.635 25.96 136.608 25.96C136.608 25.96 136.621 25.9467 136.648 25.92C136.675 25.8933 136.688 25.88 136.688 25.88C136.688 25.8533 136.701 25.8267 136.728 25.8C136.755 25.7733 136.781 25.7333 136.808 25.68C136.835 25.6267 136.861 25.5733 136.888 25.52C136.941 25.4933 136.968 25.4667 136.968 25.44C136.968 25.4133 136.981 25.3867 137.008 25.36C137.035 25.3333 137.035 25.32 137.008 25.32C137.008 25.32 137.021 25.3067 137.048 25.28V25.24ZM135.688 26.88L135.728 26.84C135.728 26.7867 135.755 26.7333 135.808 26.68C135.835 26.6267 135.848 26.5733 135.848 26.52C135.875 26.4933 135.901 26.4533 135.928 26.4C135.955 26.3467 135.968 26.3067 135.968 26.28C135.995 26.2267 136.035 26.16 136.088 26.08C136.141 26.0267 136.168 25.9733 136.168 25.92C136.195 25.8933 136.208 25.8667 136.208 25.84C136.235 25.8133 136.261 25.7867 136.288 25.76C136.341 25.6533 136.421 25.52 136.528 25.36C136.608 25.28 136.661 25.2 136.688 25.12C136.741 25.04 136.795 24.9733 136.848 24.92C136.901 24.8667 136.928 24.84 136.928 24.84C136.928 24.8133 136.941 24.7867 136.968 24.76C136.995 24.7067 137.008 24.6667 137.008 24.64H137.048H137.008C136.981 24.64 136.968 24.6533 136.968 24.68C136.915 24.7333 136.861 24.8133 136.808 24.92L136.648 25.08C136.621 25.1067 136.595 25.1467 136.568 25.2C136.541 25.2533 136.515 25.3067 136.488 25.36C136.408 25.44 136.355 25.5067 136.328 25.56C136.301 25.6133 136.275 25.6533 136.248 25.68C136.248 25.7067 136.235 25.7467 136.208 25.8C136.181 25.8267 136.141 25.8933 136.088 26C136.035 26.1067 135.995 26.2 135.968 26.28C135.915 26.3333 135.888 26.3867 135.888 26.44C135.835 26.4933 135.808 26.5333 135.808 26.56C135.781 26.5867 135.768 26.6133 135.768 26.64C135.768 26.6667 135.755 26.6933 135.728 26.72C135.728 26.7467 135.715 26.7733 135.688 26.8C135.688 26.8 135.688 26.8133 135.688 26.84V26.88ZM152.517 32.84C152.544 32.8933 152.584 32.9067 152.637 32.88C152.69 32.8533 152.717 32.8667 152.717 32.92C152.717 32.92 152.637 33.04 152.477 33.28C152.344 33.52 152.157 33.8267 151.917 34.2C151.704 34.5467 151.45 34.9467 151.157 35.4C150.864 35.8533 150.57 36.3067 150.277 36.76C150.064 37.0533 149.757 37.48 149.357 38.04C148.984 38.6 148.597 39.12 148.197 39.6C148.197 39.6267 148.184 39.6533 148.157 39.68C147.837 40.0533 147.464 40.44 147.037 40.84C146.637 41.24 146.197 41.6133 145.717 41.96C145.264 42.3067 144.784 42.6 144.277 42.84C143.77 43.1067 143.25 43.2667 142.717 43.32C141.117 43.48 139.824 43.16 138.837 42.36C137.85 41.56 137.33 40.4 137.277 38.88C137.277 38.72 137.277 38.56 137.277 38.4C137.277 38.2133 137.29 38.0267 137.317 37.84C137.317 37.7867 137.33 37.76 137.357 37.76C137.357 37.7333 137.357 37.7067 137.357 37.68V37.64V37.6C137.49 36.6667 137.744 35.6933 138.117 34.68C138.49 33.64 139.037 32.6667 139.757 31.76C140.157 31.2533 140.637 30.8133 141.197 30.44C141.784 30.04 142.357 29.7467 142.917 29.56C143.477 29.3467 143.997 29.2667 144.477 29.32C144.957 29.3467 145.33 29.52 145.597 29.84C145.73 29.9733 145.837 30.0933 145.917 30.2C146.024 30.3067 146.117 30.4133 146.197 30.52C146.41 30.6533 146.624 30.8533 146.837 31.12C147.077 31.36 147.184 31.7067 147.157 32.16V32.2V32.32C147.104 33.3333 146.944 34.1067 146.677 34.64C146.41 35.1733 146.13 35.56 145.837 35.8C145.544 36.0133 145.264 36.1333 144.997 36.16C144.73 36.16 144.557 36.16 144.477 36.16C144.344 36.1333 144.29 36.0933 144.317 36.04C144.344 35.9867 144.29 35.9333 144.157 35.88C144.024 35.8533 144.01 35.8133 144.117 35.76C144.224 35.7067 144.224 35.6533 144.117 35.6C143.984 35.5467 143.984 35.5067 144.117 35.48C144.25 35.4267 144.25 35.3867 144.117 35.36C144.01 35.36 143.997 35.32 144.077 35.24C144.104 35.2133 144.144 35.1867 144.197 35.16C144.597 35.16 144.917 35.0533 145.157 34.84C145.397 34.6 145.584 34.3333 145.717 34.04C145.85 33.72 145.944 33.3867 145.997 33.04C146.05 32.6667 146.077 32.3333 146.077 32.04C146.077 31.7467 146.05 31.5467 145.997 31.44C145.944 31.3333 145.89 31.2667 145.837 31.24V31.2C145.597 31.04 145.33 31.0667 145.037 31.28C144.877 31.3867 144.637 31.6267 144.317 32C144.024 32.3467 143.69 32.7867 143.317 33.32C142.97 33.8267 142.61 34.4133 142.237 35.08C141.89 35.72 141.584 36.4 141.317 37.12C141.184 37.4133 141.064 37.7733 140.957 38.2C140.85 38.6 140.77 39.0133 140.717 39.44C140.664 39.8133 140.677 40.1733 140.757 40.52C140.837 40.8667 140.984 41.1467 141.197 41.36C141.49 41.6267 141.85 41.7733 142.277 41.8C142.677 41.8267 143.104 41.7467 143.557 41.56C144.01 41.3733 144.45 41.1333 144.877 40.84C145.33 40.52 145.757 40.1733 146.157 39.8C146.557 39.4267 146.917 39.08 147.237 38.76C147.37 38.6267 147.49 38.4933 147.597 38.36C147.73 38.2267 147.85 38.1067 147.957 38C148.09 37.84 148.237 37.6667 148.397 37.48C148.557 37.2667 148.664 37.1067 148.717 37C148.957 36.68 149.25 36.2933 149.597 35.84C149.97 35.36 150.33 34.8933 150.677 34.44C151.077 33.9333 151.49 33.3867 151.917 32.8L152.037 32.68C152.09 32.6267 152.13 32.64 152.157 32.72C152.184 32.8267 152.21 32.84 152.237 32.76C152.264 32.68 152.277 32.6933 152.277 32.8C152.277 32.88 152.304 32.8933 152.357 32.84C152.437 32.76 152.49 32.76 152.517 32.84ZM141.837 31.24C141.704 31.3733 141.584 31.4933 141.477 31.6C141.37 31.7067 141.277 31.8267 141.197 31.96C141.117 32.0667 141.077 32.12 141.077 32.12C141.077 32.0933 141.064 32.1067 141.037 32.16C141.01 32.2133 141.104 32.12 141.317 31.88C141.397 31.7733 141.45 31.7067 141.477 31.68C141.477 31.7067 141.517 31.6533 141.597 31.52C141.65 31.4667 141.69 31.4133 141.717 31.36C141.77 31.3067 141.81 31.2667 141.837 31.24V31.2V31.24ZM138.837 36.32C138.837 36.2933 138.837 36.2933 138.837 36.32C138.81 36.3467 138.797 36.3733 138.797 36.4C138.797 36.4 138.784 36.4267 138.757 36.48C138.757 36.5333 138.757 36.5733 138.757 36.6C138.73 36.6267 138.717 36.6533 138.717 36.68V36.72C138.717 36.7467 138.717 36.76 138.717 36.76C138.69 36.76 138.677 36.7733 138.677 36.8V36.84V36.88H138.717V36.84V36.72C138.717 36.7467 138.73 36.76 138.757 36.76C138.757 36.7333 138.757 36.7067 138.757 36.68C138.757 36.6533 138.77 36.64 138.797 36.64C138.797 36.6133 138.797 36.5867 138.797 36.56V36.52C138.797 36.4667 138.81 36.4267 138.837 36.4V36.32ZM138.717 35.6C138.744 35.5467 138.757 35.5067 138.757 35.48C138.757 35.4267 138.784 35.36 138.837 35.28C138.89 35.1467 138.944 35.0267 138.997 34.92C139.024 34.8133 139.09 34.68 139.197 34.52C139.25 34.4133 139.304 34.2933 139.357 34.16C139.437 34.0267 139.517 33.88 139.597 33.72C139.704 33.56 139.797 33.4133 139.877 33.28C139.984 33.1467 140.064 33.0133 140.117 32.88C140.277 32.6667 140.424 32.4667 140.557 32.28C140.69 32.0933 140.797 31.9467 140.877 31.84C140.957 31.7333 140.997 31.6667 140.997 31.64C141.024 31.6133 141.064 31.56 141.117 31.48L141.317 31.28V31.24L141.277 31.28L141.157 31.4C141.077 31.48 141.01 31.56 140.957 31.64C140.904 31.72 140.85 31.7867 140.797 31.84C140.744 31.8933 140.69 31.9733 140.637 32.08C140.584 32.16 140.53 32.2267 140.477 32.28C140.424 32.3333 140.357 32.4133 140.277 32.52C140.197 32.6267 140.13 32.7467 140.077 32.88C140.024 32.9333 139.97 33.0133 139.917 33.12C139.864 33.1733 139.81 33.2533 139.757 33.36C139.704 33.4133 139.664 33.4533 139.637 33.48C139.637 33.5067 139.624 33.5467 139.597 33.6C139.544 33.7067 139.49 33.8 139.437 33.88C139.384 34.0133 139.344 34.1067 139.317 34.16C139.29 34.1867 139.25 34.2533 139.197 34.36C139.17 34.4133 139.144 34.4667 139.117 34.52C139.117 34.5467 139.104 34.5867 139.077 34.64C139.05 34.6933 139.024 34.76 138.997 34.84C138.97 34.8933 138.944 34.9467 138.917 35C138.864 35.1067 138.81 35.2267 138.757 35.36C138.704 35.4933 138.664 35.6133 138.637 35.72C138.584 35.88 138.544 35.9867 138.517 36.04C138.464 36.2 138.437 36.3067 138.437 36.36V36.4C138.437 36.4 138.437 36.4133 138.437 36.44V36.4V36.36C138.464 36.3067 138.49 36.24 138.517 36.16C138.517 36.08 138.544 36 138.597 35.92C138.677 35.7067 138.717 35.6 138.717 35.6ZM139.277 35.12C139.25 35.1467 139.21 35.24 139.157 35.4L139.117 35.44C139.117 35.4933 139.104 35.5467 139.077 35.6C139.05 35.6267 139.037 35.6533 139.037 35.68V35.72C139.01 35.7467 138.997 35.7733 138.997 35.8V35.84C138.997 35.84 139.01 35.8133 139.037 35.76C139.037 35.76 139.05 35.7333 139.077 35.68V35.64C139.104 35.6133 139.117 35.5867 139.117 35.56L139.157 35.48H139.197C139.197 35.4267 139.197 35.3867 139.197 35.36C139.224 35.3333 139.25 35.2933 139.277 35.24C139.304 35.1867 139.317 35.1333 139.317 35.08L139.277 35.12ZM139.677 34.36L139.637 34.4C139.61 34.4267 139.57 34.4933 139.517 34.6C139.517 34.6533 139.477 34.72 139.397 34.8C139.37 34.8533 139.357 34.88 139.357 34.88C139.384 34.88 139.397 34.9067 139.397 34.96C139.397 34.9333 139.41 34.8933 139.437 34.84C139.49 34.7867 139.517 34.7467 139.517 34.72C139.517 34.6667 139.544 34.6133 139.597 34.56C139.624 34.48 139.65 34.4267 139.677 34.4V34.36ZM139.717 34.2C139.717 34.2533 139.757 34.2133 139.837 34.08L139.997 33.84C140.024 33.7867 140.037 33.7467 140.037 33.72C140.064 33.6933 140.104 33.64 140.157 33.56C140.21 33.5067 140.277 33.4133 140.357 33.28C140.437 33.1467 140.504 33.04 140.557 32.96C140.61 32.88 140.65 32.8133 140.677 32.76C140.73 32.68 140.784 32.6133 140.837 32.56C140.89 32.4533 140.917 32.4 140.917 32.4C140.944 32.3733 140.957 32.3467 140.957 32.32C140.957 32.2933 140.944 32.28 140.917 32.28C140.89 32.28 140.877 32.2933 140.877 32.32C140.824 32.4267 140.784 32.4933 140.757 32.52C140.757 32.5467 140.73 32.5733 140.677 32.6C140.65 32.6267 140.637 32.6533 140.637 32.68C140.61 32.7067 140.584 32.7467 140.557 32.8C140.557 32.8267 140.53 32.8667 140.477 32.92C140.45 32.9733 140.424 33.0133 140.397 33.04C140.397 33.04 140.384 33.0667 140.357 33.12C140.304 33.1733 140.264 33.24 140.237 33.32C140.184 33.3733 140.144 33.4267 140.117 33.48C140.117 33.5333 140.104 33.5733 140.077 33.6C140.05 33.6267 140.024 33.6667 139.997 33.72C139.97 33.7733 139.944 33.8267 139.917 33.88C139.89 33.9067 139.864 33.9467 139.837 34C139.81 34.0267 139.784 34.0667 139.757 34.12C139.757 34.1467 139.744 34.1733 139.717 34.2ZM140.677 35.4L141.077 34.6C141.184 34.44 141.277 34.2933 141.357 34.16C141.464 34 141.557 33.8533 141.637 33.72C141.824 33.5067 141.97 33.2933 142.077 33.08C142.21 32.8667 142.33 32.72 142.437 32.64C142.517 32.5333 142.557 32.4667 142.557 32.44C142.584 32.3867 142.624 32.32 142.677 32.24C142.73 32.16 142.77 32.1067 142.797 32.08H142.837H142.877C142.877 32.08 142.877 32.0667 142.877 32.04C142.904 32.04 142.904 32.0267 142.877 32C142.877 31.9733 142.864 31.96 142.837 31.96C142.837 31.96 142.824 31.9467 142.797 31.92L142.757 31.88C142.757 31.9067 142.744 31.9333 142.717 31.96V32C142.69 32 142.664 32.0133 142.637 32.04C142.53 32.12 142.45 32.2133 142.397 32.32C142.344 32.4267 142.29 32.5067 142.237 32.56C142.184 32.6133 142.117 32.68 142.037 32.76C141.957 32.84 141.89 32.9067 141.837 32.96C141.784 33.0133 141.717 33.1067 141.637 33.24C141.584 33.3733 141.517 33.5067 141.437 33.64C141.437 33.6667 141.41 33.7067 141.357 33.76L141.237 33.88C141.21 33.9333 141.184 33.9733 141.157 34C141.13 34.0267 141.104 34.0667 141.077 34.12C141.024 34.2267 140.97 34.32 140.917 34.4C140.864 34.4533 140.81 34.5467 140.757 34.68C140.73 34.7067 140.717 34.7333 140.717 34.76C140.717 34.7867 140.704 34.8133 140.677 34.84C140.677 34.8667 140.664 34.8933 140.637 34.92C140.637 34.92 140.637 34.9333 140.637 34.96C140.637 34.9867 140.624 35.0267 140.597 35.08C140.597 35.1067 140.597 35.1467 140.597 35.2C140.544 35.3067 140.504 35.4133 140.477 35.52C140.45 35.6267 140.41 35.7333 140.357 35.84C140.304 35.9733 140.25 36.1067 140.197 36.24C140.144 36.3733 140.09 36.4933 140.037 36.6C140.037 36.68 140.01 36.7733 139.957 36.88C139.957 36.9333 139.944 36.9867 139.917 37.04C139.917 37.0667 139.917 37.1067 139.917 37.16V37.2V37.24C139.917 37.24 139.917 37.2533 139.917 37.28H139.997C139.997 37.28 139.997 37.2667 139.997 37.24H140.037L139.997 37.2C139.997 37.1733 139.997 37.1467 139.997 37.12C140.024 37.0933 140.037 37.0533 140.037 37C140.064 36.9733 140.077 36.9467 140.077 36.92C140.077 36.8933 140.09 36.8533 140.117 36.8C140.17 36.6933 140.197 36.6267 140.197 36.6C140.224 36.5733 140.237 36.5333 140.237 36.48C140.264 36.4533 140.277 36.4133 140.277 36.36C140.277 36.36 140.304 36.3067 140.357 36.2C140.357 36.12 140.384 36.0533 140.437 36C140.437 35.9733 140.437 35.9467 140.437 35.92C140.464 35.8933 140.477 35.8667 140.477 35.84C140.53 35.7333 140.557 35.6667 140.557 35.64L140.677 35.4Z" fill="#C81F26"/>
<path d="M163.179 22.7546C163.179 22.7546 162.248 31.2052 154.351 33.9199C154.351 33.9199 165.086 36.9198 160.067 45.5986C160.067 45.5986 167.616 46.9765 170.425 54.9418C170.425 54.9418 169.122 47.503 176.205 45.9705C176.205 45.9705 163.516 39.4739 173.441 32.369C173.437 32.3413 162.939 33.0845 163.179 22.7546Z" fill="#00B494"/>
<path opacity="0.2" d="M169.101 49.809C168.415 49.1797 167.847 48.4178 167.333 47.6472C166.82 46.8766 166.352 46.0418 165.911 45.2027C165.47 44.3636 165.111 43.5114 164.774 42.6272C164.437 41.7429 164.155 40.85 163.873 39.957C163.617 39.0597 163.385 38.1304 163.184 37.2244C163.01 36.314 162.832 35.3759 162.713 34.4569C162.47 32.5911 162.367 30.7312 162.427 28.8452C162.833 30.6849 163.176 32.4779 163.578 34.2899C163.779 35.1959 163.975 36.0742 164.23 36.9715C164.458 37.8731 164.682 38.7471 164.96 39.6123C165.211 40.4819 165.493 41.3748 165.771 42.2401C166.049 43.1053 166.381 43.9618 166.713 44.8183C167.405 46.527 168.119 48.2036 169.101 49.809Z" fill="black"/>
<path d="M126.59 11.6141C126.59 11.6141 134.14 14.385 134.507 21.5473C134.507 21.5473 141.524 13.6857 147.334 19.8624C147.334 19.8624 150.122 13.9574 157.094 13.4663C157.094 13.4663 150.886 12.8116 151.254 6.58354C151.254 6.58354 143.22 15.5747 139.797 5.68928C139.802 5.717 133.77 12.5964 126.59 11.6141Z" fill="#00B494"/>
<path opacity="0.2" d="M152.736 13.3967C152.078 13.8148 151.344 14.1029 150.605 14.3633C149.862 14.5961 149.115 14.8011 148.359 14.9506C147.602 15.1002 146.81 15.1987 146.045 15.2928C145.275 15.3592 144.501 15.3979 143.723 15.4088C142.94 15.3921 142.157 15.3753 141.397 15.3265C140.632 15.25 139.84 15.1778 139.071 15.0735C137.529 14.8373 136.027 14.5092 134.553 14.0061C136.101 14.0994 137.626 14.2248 139.146 14.3224C139.906 14.3712 140.666 14.42 141.418 14.4134C142.173 14.4345 142.929 14.4556 143.708 14.4447C144.459 14.438 145.237 14.4271 145.984 14.3927C146.731 14.3584 147.501 14.292 148.243 14.2299C149.742 14.0183 151.241 13.8067 152.736 13.3967Z" fill="black"/>
<path d="M164.49 15.9774C165.773 14.0663 168.345 13.5975 170.201 14.9207C172.057 16.2439 172.529 18.8407 171.246 20.7518C169.96 22.6353 167.415 23.0997 165.531 21.7809C163.68 20.4854 163.204 17.8609 164.49 15.9774Z" fill="#E75143"/>
<path d="M154.911 16.7157C156.198 14.8323 158.743 14.3678 160.626 15.6866C162.482 17.0098 162.954 19.6067 161.672 21.5178C160.385 23.4012 157.84 23.8657 155.957 22.5468C154.101 21.2236 153.629 18.6268 154.911 16.7157Z" fill="#E75143"/>
<path d="M158.979 8.35983C160.261 6.4487 162.806 5.98423 164.69 7.30308C166.546 8.62628 167.017 11.2231 165.735 13.1342C164.448 15.0176 161.903 15.4821 160.02 14.1633C158.168 12.8678 157.692 10.2432 158.979 8.35983Z" fill="#E75143"/>
<path opacity="0.2" d="M164.623 17.1503C165.277 16.1926 166.55 15.9603 167.494 16.6336C168.437 17.3069 168.673 18.6053 168.019 19.5631C167.364 20.5208 166.091 20.753 165.148 20.0797C164.208 19.4342 163.968 18.1081 164.623 17.1503Z" fill="black"/>
<path opacity="0.2" d="M154.898 18.0255C155.553 17.0678 156.825 16.8355 157.769 17.5088C158.713 18.1821 158.949 19.4805 158.294 20.4382C157.639 21.396 156.367 21.6282 155.423 20.9549C154.484 20.3094 154.243 18.9832 154.898 18.0255Z" fill="black"/>
<path opacity="0.2" d="M159.097 9.6202C159.752 8.66246 161.025 8.43022 161.968 9.1035C162.912 9.77679 163.148 11.0752 162.493 12.0329C161.839 12.9907 160.566 13.2229 159.622 12.5496C158.706 11.872 158.47 10.5736 159.097 9.6202Z" fill="black"/>
</svg>